<svg width="24" height="24" viewBox="0 0 24 24" fill="none" xmlns="http://www.w3.org/2000/svg">
<g clip-path="url(#clip0_309_2488)">
<path d="M21.9913 11.9648C21.9913 14.6971 21.9753 17.4293 22.0005 20.161C22.0097 21.1361 21.1865 21.9571 20.2096 21.9502C17.0279 21.9273 13.8462 21.9278 10.6645 21.9496C9.67673 21.9565 8.83802 21.1109 8.88732 20.173C8.9114 19.7167 8.88847 19.2575 8.89248 18.8C8.89707 18.2233 9.3534 17.7911 9.94904 17.7928C10.5269 17.7945 10.9775 18.2319 10.9838 18.8C10.9867 19.0786 10.9936 19.3584 10.9815 19.6364C10.9741 19.8107 11.0411 19.8577 11.2068 19.8549C11.6866 19.8463 12.1671 19.852 12.6469 19.852C14.9687 19.852 17.2905 19.852 19.6122 19.852C19.8026 19.852 19.8979 19.7587 19.8983 19.5722C19.8983 14.5016 19.8972 9.43093 19.9029 4.35969C19.9029 4.13956 19.8393 4.08452 19.6237 4.08509C16.8364 4.09197 14.0486 4.09197 11.2613 4.08509C11.0492 4.08509 10.9632 4.13268 10.9804 4.3574C10.9999 4.61366 10.9867 4.87221 10.9844 5.12961C10.9792 5.71206 10.5303 6.1489 9.93929 6.1489C9.34767 6.1489 8.8965 5.71321 8.89248 5.1319C8.88904 4.63831 8.88904 4.14472 8.89248 3.65169C8.89879 2.77458 9.66584 2.00352 10.5447 2.00237C13.8049 1.99893 17.0657 1.9995 20.326 2.00237C21.2186 2.00294 21.9885 2.77114 21.9896 3.66144C21.9925 6.42923 21.9908 9.19703 21.9908 11.9648H21.9913Z" fill="white"/>
<path d="M14.2167 10.9035C14.1944 10.8175 14.1222 10.7768 14.0688 10.7235C13.4468 10.1003 12.8214 9.48058 12.2017 8.85571C11.9013 8.55302 11.7855 8.19013 11.9179 7.77508C12.0492 7.36404 12.341 7.11982 12.7652 7.04415C13.1063 6.98338 13.4119 7.08428 13.6532 7.32333C14.9649 8.62296 16.2737 9.92545 17.5739 11.2365C17.9895 11.6556 17.9884 12.2874 17.5722 12.7064C16.2765 14.0118 14.9752 15.312 13.6658 16.6036C13.2341 17.0295 12.5915 17.0112 12.1782 16.5961C11.7591 16.1759 11.7597 15.5333 12.1931 15.0947C12.8162 14.463 13.448 13.8398 14.0757 13.2126C14.1256 13.1628 14.1737 13.1106 14.2334 13.0475C14.1434 12.9942 14.0579 13.016 13.9783 13.016C10.346 13.0149 6.71424 13.0149 3.08194 13.0143C2.59465 13.0143 2.20425 12.7454 2.05863 12.3143C1.82588 11.6252 2.31948 10.927 3.04754 10.9264C6.68672 10.9247 10.3259 10.9258 13.9651 10.9241C14.0476 10.9241 14.1342 10.947 14.2167 10.9029V10.9035Z" fill="white"/>
</g>
<defs>
<clipPath id="clip0_309_2488">
<rect width="20" height="19.9501" fill="white" transform="translate(2 2)"/>
</clipPath>
</defs>
</svg>
