<svg width="25" height="24" viewBox="0 0 25 24" fill="none" xmlns="http://www.w3.org/2000/svg">
<path d="M21.2499 11.5C21.2499 11.2238 21.0261 11 20.7499 11H6.66394L11.6034 6.06052C11.7986 5.86526 11.7986 5.54868 11.6034 5.35341L10.8965 4.64652C10.7012 4.45126 10.3846 4.45126 10.1894 4.64652L3.18949 11.6464C2.99423 11.8417 2.99423 12.1583 3.18949 12.3535L10.1894 19.3534C10.3846 19.5487 10.7012 19.5487 10.8965 19.3534L11.6034 18.6465C11.7986 18.4513 11.7986 18.1347 11.6034 17.9394L6.66394 13H20.7499C21.0261 13 21.2499 12.7761 21.2499 12.5V11.5Z" fill="#163859"/>
</svg>
