<svg width="24" height="24" viewBox="0 0 24 24" fill="none" xmlns="http://www.w3.org/2000/svg">
<g clip-path="url(#clip0_307_1465)">
<path d="M21.9975 2.78323C21.9235 2.92278 21.8199 3.03734 21.7085 3.14877C15.5349 9.32076 9.36242 15.4938 3.18991 21.6673C3.06546 21.7918 2.94257 21.9168 2.78375 21.998C2.54943 21.998 2.31511 21.9944 2.08079 22.0001C2.01258 22.0016 1.99904 21.9876 2.0006 21.9199C2.00633 21.6856 2.00269 21.4513 2.00269 21.2169C2.0735 21.0836 2.1714 20.9722 2.27762 20.866C3.64814 19.4975 5.01761 18.127 6.3876 16.7581C6.4756 16.6701 6.56204 16.6092 6.39541 16.4967C5.25974 15.7276 4.24435 14.8184 3.31748 13.8109C2.84728 13.299 2.37604 12.7866 2.00217 12.1951C2.00217 12.0649 2.00217 11.9347 2.00217 11.8046C2.07871 11.6916 2.14849 11.5739 2.23232 11.4661C3.01183 10.4606 3.88298 9.5405 4.84213 8.70476C6.09235 7.61595 7.45193 6.70106 9.0099 6.10641C10.1815 5.65912 11.3932 5.45552 12.645 5.5607C13.9067 5.66641 15.0861 6.06267 16.2004 6.65472C16.3478 6.73283 16.4316 6.71981 16.5482 6.60213C17.9838 5.15767 19.4262 3.71947 20.8649 2.27814C20.9717 2.17139 21.0831 2.07454 21.2164 2.00268C21.4507 2.00268 21.6851 2.00633 21.9194 2.0006C21.9876 1.99904 22.0011 2.0131 21.9996 2.08079C21.9938 2.31511 21.9975 2.54943 21.9975 2.78375V2.78323ZM9.0578 12.0139C9.05728 11.0964 9.45198 10.2362 10.1549 9.70348C11.1755 8.93075 12.2711 8.83077 13.412 9.42126C13.5797 9.50822 13.6718 9.4952 13.79 9.35981C13.9395 9.1885 14.1019 9.02656 14.2727 8.87711C14.4112 8.75579 14.4003 8.68914 14.2457 8.59333C12.9439 7.78727 11.59 7.68416 10.2096 8.3413C8.62249 9.09685 7.72635 10.7965 7.9565 12.5419C8.03929 13.1704 8.26268 13.7494 8.6152 14.2785C8.69487 14.3982 8.75059 14.4045 8.84848 14.2993C9.03021 14.1045 9.21923 13.9155 9.41449 13.7338C9.50874 13.6463 9.51239 13.5776 9.44834 13.4677C9.18382 13.0152 9.03958 12.5273 9.05728 12.0139H9.0578Z" fill="#636366"/>
<path d="M21.9973 12.1948C21.662 12.7337 21.2371 13.2018 20.8122 13.6679C19.5557 15.0472 18.1581 16.2563 16.5241 17.1749C15.3077 17.8585 14.0174 18.3277 12.6193 18.4407C11.3196 18.5454 10.0668 18.3152 8.85768 17.833C8.73948 17.7862 8.71813 17.7393 8.81498 17.643C9.38308 17.079 9.95013 16.5141 10.512 15.9439C10.6099 15.845 10.701 15.8653 10.8124 15.8975C12.0252 16.249 13.178 16.1027 14.2299 15.405C15.3301 14.6749 15.9446 13.6377 16.0602 12.3104C16.1049 11.7964 16.044 11.2981 15.8956 10.8092C15.8545 10.6743 15.8711 10.5826 15.9737 10.4806C16.7371 9.72504 17.4963 8.96584 18.2513 8.20248C18.3575 8.09469 18.4289 8.09573 18.5434 8.1879C19.7754 9.18037 20.8752 10.3025 21.838 11.5579C21.8973 11.635 21.9442 11.7214 21.9968 11.8032V12.1937L21.9973 12.1948Z" fill="#636366"/>
<path d="M12.0327 14.9496C11.8879 14.9152 11.6859 15.0121 11.6302 14.8824C11.5891 14.7856 11.7817 14.6814 11.8754 14.5872C12.8289 13.6296 13.7854 12.6741 14.742 11.7196C14.7852 11.6769 14.8216 11.5926 14.893 11.6202C14.9643 11.6478 14.9346 11.7342 14.9393 11.7957C15.0507 13.388 13.8968 14.7012 12.431 14.9184C12.2967 14.9382 12.1598 14.9402 12.0322 14.9496H12.0327Z" fill="#636366"/>
</g>
<defs>
<clipPath id="clip0_307_1465">
<rect width="20" height="20" fill="white" transform="translate(2 2)"/>
</clipPath>
</defs>
</svg>
