<svg width="40" height="40" viewBox="0 0 40 40" fill="none" xmlns="http://www.w3.org/2000/svg">
<ellipse opacity="0.05" cx="20.0015" cy="20" rx="20.0015" ry="20" fill="#163859"/>
<path fill-rule="evenodd" clip-rule="evenodd" d="M11.2887 12.0879L11.3613 12.012C13.2887 10.0844 14.5438 9.57351 15.8831 10.3436C16.2683 10.5651 16.6295 10.8752 17.1205 11.374L18.6269 12.936C19.4589 13.8439 19.6481 14.7148 19.3772 15.7347L19.3398 15.8697L19.2984 16.0039L19.097 16.5947C18.666 17.9197 18.846 18.6673 20.3795 20.2004C21.9742 21.7947 22.7186 21.9251 24.1457 21.4264L24.4001 21.338L24.7077 21.2381L24.8423 21.2007C25.9263 20.9115 26.842 21.1423 27.8132 22.1128L29.0269 23.2852L29.3842 23.6366C29.7803 24.0405 30.0421 24.3606 30.2355 24.6989C31.0008 26.0377 30.4893 27.2921 28.5063 29.2677L28.3177 29.4589C28.0216 29.7442 27.745 29.9486 27.3386 30.1416C26.6565 30.4655 25.8506 30.5876 24.9142 30.4573C22.6067 30.1364 19.6802 28.3158 15.9719 24.6085C15.67 24.3067 15.3809 24.0107 15.1042 23.7205L14.5675 23.1476C9.53762 17.6828 9.09389 14.3259 11.1552 12.2205L11.2887 12.0879ZM15.9064 12.2809C15.5806 11.9597 15.344 11.7639 15.1353 11.644C14.6738 11.3786 14.1755 11.4907 13.2533 12.2845L12.9635 12.5433C12.913 12.59 12.8613 12.6384 12.8084 12.6887L12.4761 13.0123L12.4462 13.0497L12.2209 13.276C11.6766 13.832 11.4187 14.5106 11.6409 15.6777C12.0055 17.5927 13.6744 20.1905 17.0324 23.5477C20.5313 27.0456 23.1972 28.7041 25.1208 28.9716C26.2422 29.1276 26.8142 28.856 27.3975 28.2584L27.8424 27.8095C28.051 27.5912 28.2292 27.3933 28.3797 27.2126L28.585 26.9539C29.1097 26.2551 29.1576 25.8358 28.9332 25.4433C28.8479 25.2939 28.7237 25.1302 28.5429 24.93L28.2977 24.671L28.1525 24.5258L26.6213 23.0472C26.1096 22.5753 25.7599 22.5084 25.229 22.65L25.0757 22.6941L24.4414 22.9094C22.6013 23.5037 21.2738 23.2155 19.3189 21.2612C17.2943 19.237 17.0568 17.8854 17.7352 15.9392L17.7787 15.8141L17.8991 15.4515L17.9582 15.2204C18.0631 14.7175 17.9434 14.3668 17.4027 13.826C17.3804 13.8037 17.3555 13.7787 17.3285 13.7512L15.9064 12.2809Z" fill="#163859"/>
</svg>
