<svg width="52" height="52" viewBox="0 0 52 52" fill="none" xmlns="http://www.w3.org/2000/svg">
<g filter="url(#filter0_d_597_3696)">
<rect x="8" y="8" width="36" height="36" rx="12" fill="white" shape-rendering="crispEdges"/>
<path d="M26.0215 16.0008C28.2469 16.0008 30.4723 15.9997 32.6978 16.0008C34.5091 16.002 35.9981 17.4859 35.9987 19.2934C36.0004 23.7648 36.0004 28.2363 35.9987 32.7077C35.9981 34.5041 34.5091 35.9975 32.7167 35.9981C28.238 35.9997 23.7599 35.9997 19.2813 35.9981C17.4988 35.9975 16.002 34.5046 16.0015 32.7266C15.9998 28.2413 15.9992 23.756 16.0015 19.2706C16.002 17.5026 17.4977 16.0036 19.2624 16.0014C21.5156 15.9986 23.7683 16.0008 26.0215 16.0008ZM30.6441 25.32C31.8919 25.32 33.1396 25.3155 34.3874 25.3244C34.5903 25.3261 34.6436 25.2627 34.6431 25.0649C34.6364 23.214 34.6409 21.3632 34.6364 19.5118C34.6364 19.3123 34.6181 19.1083 34.5747 18.9144C34.3613 17.9567 33.5637 17.3631 32.4893 17.3614C30.6385 17.3581 28.7877 17.3631 26.9363 17.3564C26.7412 17.3559 26.674 17.4037 26.6745 17.6093C26.6812 20.0982 26.6807 22.5865 26.6751 25.0754C26.6751 25.2655 26.7273 25.3244 26.9208 25.3233C28.1619 25.3155 29.4024 25.3194 30.6435 25.3194L30.6441 25.32ZM25.3195 21.3616C25.3195 20.1205 25.3195 18.8799 25.3195 17.6388C25.3195 17.4539 25.2296 17.3611 25.0499 17.3603C23.213 17.3603 21.3755 17.3603 19.5386 17.3603C19.3229 17.3603 19.1084 17.3792 18.8994 17.4276C17.9496 17.6494 17.3632 18.4397 17.361 19.5035C17.3576 21.3616 17.3626 23.219 17.356 25.0771C17.3554 25.2694 17.4121 25.3239 17.6033 25.3233C20.0922 25.3178 22.5805 25.3172 25.0694 25.3233C25.2745 25.3233 25.3245 25.2583 25.3234 25.0626C25.3156 23.8288 25.3195 22.5949 25.3195 21.361V21.3616ZM21.3533 26.68C20.1122 26.68 18.8716 26.68 17.6305 26.68C17.4504 26.68 17.3602 26.7725 17.3598 26.9574C17.3598 28.7876 17.3598 30.6179 17.3598 32.4476C17.3598 32.6632 17.3765 32.8783 17.4238 33.0873C17.6394 34.0439 18.4375 34.6369 19.5114 34.6386C21.3622 34.6413 23.213 34.6369 25.0644 34.6436C25.2617 34.6441 25.3245 34.5919 25.3239 34.3885C25.3173 31.8996 25.3178 29.4112 25.3239 26.9224C25.3239 26.7295 25.2673 26.675 25.0766 26.6761C23.8355 26.6839 22.595 26.68 21.3538 26.68H21.3533ZM30.6591 26.68C29.4252 26.68 28.1913 26.68 26.9574 26.68C26.7729 26.68 26.6805 26.7701 26.6801 26.9502C26.6801 29.4251 26.6823 31.9001 26.6757 34.3746C26.6751 34.5841 26.7307 34.6447 26.943 34.6436C28.7871 34.6352 30.6307 34.6391 32.4749 34.6386C32.69 34.6386 32.9051 34.6197 33.1135 34.5691C34.0523 34.3429 34.6359 33.5559 34.6381 32.5021C34.6425 30.644 34.6364 28.7865 34.6436 26.9285C34.6442 26.7223 34.5769 26.6739 34.3819 26.675C33.1408 26.6828 31.9002 26.6789 30.6591 26.6789V26.68Z" fill="#163859" stroke="#163859" stroke-width="0.5"/>
<path d="M30.6586 20.6609C31.31 20.6609 31.9614 20.6598 32.6123 20.6609C33.0513 20.662 33.3354 20.9305 33.3354 21.3401C33.3354 21.7503 33.0519 22.0193 32.6128 22.0198C31.31 22.0209 30.0078 22.0209 28.705 22.0198C28.2653 22.0198 27.9824 21.7508 27.9824 21.3401C27.9824 20.9271 28.2625 20.662 28.7044 20.6609C29.3558 20.6592 30.0072 20.6609 30.6581 20.6609H30.6586Z" fill="#163859" stroke="#163859" stroke-width="0.5"/>
<path d="M20.6602 19.8829C20.6602 19.689 20.6552 19.495 20.6614 19.301C20.673 18.9303 20.9609 18.6635 21.3411 18.6641C21.719 18.6641 22.0103 18.9342 22.017 19.3049C22.0242 19.6929 22.0236 20.0808 22.017 20.4688C22.0147 20.6122 22.0636 20.6655 22.2093 20.6627C22.5833 20.6555 22.9574 20.6583 23.3314 20.6616C23.7349 20.665 24.0151 20.944 24.0156 21.3375C24.0167 21.7343 23.7399 22.0156 23.3375 22.0194C22.9841 22.0233 22.63 22.0333 22.2776 22.0156C22.0586 22.0044 22.0053 22.0839 22.0142 22.289C22.0297 22.6347 22.0208 22.9815 22.0175 23.3278C22.0136 23.7435 21.7329 24.0209 21.3255 24.017C20.9354 24.0131 20.6619 23.7313 20.6591 23.3228C20.6563 22.9487 20.6547 22.5747 20.6602 22.2006C20.6625 22.0656 20.613 22.0167 20.4779 22.0183C20.1039 22.0239 19.7298 22.0222 19.3558 22.0194C18.9378 22.0161 18.6594 21.7388 18.6621 21.3319C18.6644 20.9379 18.9428 20.6644 19.3502 20.6611C19.6965 20.6583 20.0427 20.6611 20.3896 20.66C20.5685 20.66 20.6582 20.5671 20.6586 20.3815C20.6586 20.2153 20.6586 20.0491 20.6586 19.8829H20.6591H20.6602Z" fill="#163859" stroke="#163859" stroke-width="0.5"/>
<path d="M23.4362 29.3239C23.4412 29.4746 23.3389 29.6424 23.1922 29.7897C22.9471 30.0348 22.7059 30.2838 22.4557 30.5234C22.3513 30.6234 22.3501 30.6946 22.4552 30.7952C22.7053 31.0347 22.9493 31.2815 23.1911 31.5299C23.5034 31.8506 23.519 32.2919 23.2339 32.5676C22.9532 32.8388 22.5247 32.8172 22.2112 32.5104C21.9633 32.268 21.7165 32.0246 21.477 31.7739C21.3769 31.6694 21.3052 31.6689 21.2052 31.7739C20.9656 32.024 20.7189 32.268 20.471 32.5104C20.1514 32.8222 19.709 32.8383 19.4333 32.5532C19.1621 32.2725 19.1837 31.844 19.4905 31.5305C19.7329 31.2826 19.9763 31.0358 20.2264 30.7963C20.3304 30.6962 20.3326 30.6245 20.2275 30.5239C19.9774 30.2844 19.7334 30.0376 19.4911 29.7897C19.1787 29.4701 19.1621 29.0288 19.4472 28.7526C19.7279 28.4808 20.1553 28.5019 20.4699 28.8087C20.7177 29.0505 20.9645 29.2945 21.2041 29.5446C21.3036 29.6485 21.3747 29.6513 21.4759 29.5463C21.7354 29.2767 21.9994 29.011 22.2712 28.7537C22.4947 28.5425 22.7653 28.503 23.0427 28.6259C23.3083 28.7437 23.4351 28.9649 23.4356 29.3234L23.4362 29.3239Z" fill="#163859" stroke="#163859" stroke-width="0.5"/>
<path d="M30.6481 30.0081C29.9967 30.0081 29.3453 30.0092 28.6944 30.0081C28.2604 30.007 27.9791 29.7318 27.9825 29.3178C27.9858 28.9165 28.267 28.6502 28.6944 28.6497C30.0039 28.648 31.3134 28.648 32.6228 28.6497C33.0569 28.6497 33.3382 28.9259 33.3348 29.3394C33.3315 29.7385 33.048 30.007 32.6223 30.0081C31.9642 30.0097 31.3061 30.0081 30.6475 30.0081H30.6481Z" fill="#163859" stroke="#163859" stroke-width="0.5"/>
<path d="M30.6586 31.3113C31.31 31.3113 31.9614 31.3102 32.6123 31.3113C33.0513 31.3124 33.3354 31.5809 33.3354 31.9905C33.3354 32.4007 33.0525 32.6697 32.6128 32.6702C31.31 32.6713 30.0078 32.6713 28.705 32.6702C28.2653 32.6702 27.9824 32.4012 27.9824 31.9905C27.9824 31.5775 28.2625 31.3124 28.7044 31.3113C29.3558 31.3096 30.0072 31.3113 30.6581 31.3113H30.6586Z" fill="#163859" stroke="#163859" stroke-width="0.5"/>
</g>
<defs>
<filter id="filter0_d_597_3696" x="0" y="0" width="52" height="52" filterUnits="userSpaceOnUse" color-interpolation-filters="sRGB">
<feFlood flood-opacity="0" result="BackgroundImageFix"/>
<feColorMatrix in="SourceAlpha" type="matrix" values="0 0 0 0 0 0 0 0 0 0 0 0 0 0 0 0 0 0 127 0" result="hardAlpha"/>
<feOffset/>
<feGaussianBlur stdDeviation="4"/>
<feComposite in2="hardAlpha" operator="out"/>
<feColorMatrix type="matrix" values="0 0 0 0 0 0 0 0 0 0 0 0 0 0 0 0 0 0 0.08 0"/>
<feBlend mode="normal" in2="BackgroundImageFix" result="effect1_dropShadow_597_3696"/>
<feBlend mode="normal" in="SourceGraphic" in2="effect1_dropShadow_597_3696" result="shape"/>
</filter>
</defs>
</svg>
