<svg width="25" height="24" viewBox="0 0 25 24" fill="none" xmlns="http://www.w3.org/2000/svg">
<path d="M3.19648 13.5563C3.02915 13.7758 3.07136 14.0894 3.29077 14.2569L7.42188 17.4099C7.63108 17.5695 7.92823 17.5397 8.10153 17.3417L15.3323 9.07791C15.5142 8.86999 15.4931 8.55394 15.285 8.37215L14.4822 7.67058C14.2743 7.48897 13.9586 7.51012 13.7769 7.71784L7.51053 14.8794L4.54339 12.6146C4.32379 12.447 4.00986 12.4892 3.84238 12.709L3.19648 13.5563ZM22.5641 9.07791C22.746 8.86999 22.7248 8.55394 22.5168 8.37215L21.714 7.67059C21.5061 7.48897 21.1904 7.51012 21.0087 7.71784L14.7578 14.8618L14.3702 14.552C14.1546 14.3796 13.8401 14.4145 13.6676 14.6301L13.0009 15.4632C12.8284 15.6788 12.8633 15.9935 13.0789 16.166L14.6363 17.4122C14.8452 17.5794 15.1488 17.5524 15.325 17.351L22.5641 9.07791Z" fill="white"/>
</svg>
