<svg width="40" height="40" viewBox="0 0 40 40" fill="none" xmlns="http://www.w3.org/2000/svg">
<ellipse opacity="0.05" cx="20.0015" cy="20" rx="20.0015" ry="20" fill="#163859"/>
<path fill-rule="evenodd" clip-rule="evenodd" d="M19.319 30H14.433C11.989 30 10 28.011 10 25.565V14.436C10 11.99 11.989 10 14.433 10H19.308C21.754 10 23.744 11.99 23.744 14.436V15.368C23.744 15.782 23.408 16.118 22.994 16.118C22.58 16.118 22.244 15.782 22.244 15.368V14.436C22.244 12.816 20.927 11.5 19.308 11.5H14.433C12.816 11.5 11.5 12.816 11.5 14.436V25.565C11.5 27.184 12.816 28.5 14.433 28.5H19.319C20.931 28.5 22.244 27.188 22.244 25.576V24.633C22.244 24.219 22.58 23.883 22.994 23.883C23.408 23.883 23.744 24.219 23.744 24.633V25.576C23.744 28.016 21.758 30 19.319 30" fill="#163859"/>
<mask id="mask0_979_4993" style="mask-type:luminance" maskUnits="userSpaceOnUse" x="16" y="19" width="15" height="2">
<path fill-rule="evenodd" clip-rule="evenodd" d="M16.9961 19.25H30.537V20.75H16.9961V19.25Z" fill="white"/>
</mask>
<g mask="url(#mask0_979_4993)">
<path fill-rule="evenodd" clip-rule="evenodd" d="M29.7871 20.75H17.7461C17.3321 20.75 16.9961 20.414 16.9961 20C16.9961 19.586 17.3321 19.25 17.7461 19.25H29.7871C30.2011 19.25 30.5371 19.586 30.5371 20C30.5371 20.414 30.2011 20.75 29.7871 20.75" fill="#163859"/>
</g>
<mask id="mask1_979_4993" style="mask-type:luminance" maskUnits="userSpaceOnUse" x="26" y="16" width="5" height="8">
<path fill-rule="evenodd" clip-rule="evenodd" d="M26.1094 16.3354H30.5367V23.6662H26.1094V16.3354Z" fill="white"/>
</mask>
<g mask="url(#mask1_979_4993)">
<path fill-rule="evenodd" clip-rule="evenodd" d="M26.8591 23.6662C26.6671 23.6662 26.4741 23.5932 26.3281 23.4452C26.0361 23.1512 26.0371 22.6772 26.3301 22.3852L28.7241 20.0002L26.3301 17.6162C26.0371 17.3242 26.0351 16.8502 26.3281 16.5562C26.6201 16.2622 27.0941 16.2622 27.3881 16.5542L30.3161 19.4692C30.4581 19.6092 30.5371 19.8012 30.5371 20.0002C30.5371 20.1992 30.4581 20.3912 30.3161 20.5312L27.3881 23.4472C27.2421 23.5932 27.0501 23.6662 26.8591 23.6662" fill="#163859"/>
</g>
</svg>
