<svg width="40" height="40" viewBox="0 0 40 40" fill="none" xmlns="http://www.w3.org/2000/svg">
<path fill-rule="evenodd" clip-rule="evenodd" d="M19.1475 24.1541C18.7335 24.1541 18.3975 23.8181 18.3975 23.4041V16.0771C18.3975 15.6631 18.7335 15.3271 19.1475 15.3271C19.5615 15.3271 19.8975 15.6631 19.8975 16.0771V23.4041C19.8975 23.8181 19.5615 24.1541 19.1475 24.1541" fill="white"/>
<path fill-rule="evenodd" clip-rule="evenodd" d="M22.814 20.4902H15.481C15.066 20.4902 14.731 20.1542 14.731 19.7402C14.731 19.3262 15.066 18.9902 15.481 18.9902H22.814C23.228 18.9902 23.564 19.3262 23.564 19.7402C23.564 20.1542 23.228 20.4902 22.814 20.4902" fill="white"/>
<path fill-rule="evenodd" clip-rule="evenodd" d="M14.4615 10.5C11.6895 10.5 9.89746 12.397 9.89746 15.335V24.165C9.89746 27.103 11.6895 29 14.4615 29H23.8335C26.6065 29 28.3975 27.103 28.3975 24.165V15.335C28.3975 12.397 26.6065 10.5 23.8335 10.5H14.4615ZM23.8335 30.5H14.4615C10.8345 30.5 8.39746 27.954 8.39746 24.165V15.335C8.39746 11.546 10.8345 9 14.4615 9H23.8335C27.4605 9 29.8975 11.546 29.8975 15.335V24.165C29.8975 27.954 27.4605 30.5 23.8335 30.5V30.5Z" fill="white"/>
</svg>
