<svg width="37" height="35" viewBox="0 0 37 35" fill="none" xmlns="http://www.w3.org/2000/svg">
<g id="Frame 625157">
<path id="Vector" d="M10.3313 28.3228C9.07705 28.3197 7.82204 28.3174 6.56781 28.3143C3.80245 28.3073 1.66886 26.7807 0.760781 24.1728C0.694033 23.9804 0.700242 23.7436 0.5 23.6094V21.4703C0.870216 20.5048 1.19076 19.516 1.89316 18.7158C2.92154 17.5439 4.20914 16.8407 5.74666 16.6529C6.20381 16.597 6.28064 16.5225 6.15957 16.0739C5.17853 12.4416 7.42389 8.60283 11.0539 7.60162C13.2379 6.99934 15.2535 7.30824 17.1395 8.54695C17.2955 8.6494 17.4694 8.72313 17.6355 8.81006C18.5257 9.22762 18.9922 10.0488 19.4532 10.835C19.7714 11.3767 20.0671 11.5289 20.695 11.3728C23.5325 10.6673 26.3716 12.2817 27.2137 14.8274C27.348 15.2341 27.5746 15.3738 28.0077 15.3257C29.0834 15.2062 30.1359 15.342 31.1472 15.7402C31.4274 15.8504 31.7479 15.914 31.8837 16.2423C33.2831 17.1651 34.3549 18.341 34.8757 19.9771C36.0322 23.6094 33.6603 27.5164 29.903 28.187C28.6294 28.4144 27.3534 28.2514 26.0806 28.3182C25.8074 28.3321 25.5055 28.2204 25.2757 28.4718C24.9816 28.4292 24.9249 28.1746 24.8473 27.9612C24.4429 26.8497 23.8771 25.819 23.3168 24.8124C23.4254 24.9591 23.3261 25.1104 23.2586 25.2548C22.8255 26.176 22.3171 27.0608 21.9353 28.0069C21.8732 28.1614 21.7715 28.2972 21.5852 28.3298C18.9184 28.3252 16.2516 28.3189 13.5848 28.3174C13.3613 28.3174 13.0866 28.2475 13.0439 28.603C12.8141 28.641 12.7714 28.4486 12.7078 28.3096C12.3857 27.6103 11.9945 26.9436 11.6981 26.2149C11.3193 26.6262 11.1385 27.1454 10.8769 27.6173C10.7318 27.8789 10.6705 28.2095 10.3321 28.3236L10.3313 28.3228Z" fill="#A5D3F1"/>
<path id="Vector_2" d="M31.883 16.2423C30.545 15.6144 29.1565 15.2838 27.6741 15.5601C27.3186 15.626 27.2441 15.4421 27.1478 15.158C26.3849 12.9096 24.7985 11.6678 22.4515 11.3953C21.711 11.31 20.9884 11.4543 20.2845 11.6802C20.033 11.7609 19.7668 11.9122 19.6248 11.5552C19.1917 10.471 18.3721 9.67077 17.6348 8.81004C18.8975 6.90308 20.5561 5.55726 22.8294 5.00931C27.4816 3.88935 32.2067 7.27174 32.6211 12.0395C32.7492 13.5095 32.5746 14.9198 31.8815 16.2415L31.883 16.2423Z" fill="#FCD021"/>
<path id="Vector_3" d="M21.5844 28.3299C22.1619 27.1192 22.7401 25.9092 23.3486 24.6348C24.2194 25.868 24.6874 27.1999 25.2757 28.4712C25.5396 29.1317 25.7787 29.8061 25.8493 30.514C25.9494 31.5175 25.5637 32.3185 24.7037 32.8672C23.8663 33.402 22.7952 33.3818 21.9717 32.7787C21.1847 32.2028 20.8347 31.4236 20.9713 30.434C21.0722 29.6998 21.3446 29.0199 21.5852 28.3292L21.5844 28.3299Z" fill="#61A2D4"/>
<path id="Vector_4" d="M10.3317 28.3233C10.7764 27.5564 11.0659 26.7019 11.6907 25.8955C12.1618 26.8377 12.6027 27.7202 13.0435 28.6027C13.4339 29.6419 13.9787 30.6268 14.0711 31.7677C14.1565 32.8233 13.7777 33.6491 12.8627 34.1582C11.929 34.6775 10.9705 34.603 10.1198 33.9526C9.28237 33.3115 9.05884 32.4119 9.24666 31.4022C9.40888 30.5321 9.78685 29.735 10.1159 28.9224C10.1951 28.7261 10.2603 28.5235 10.3317 28.324V28.3233Z" fill="#61A2D4"/>
<path id="Vector_5" d="M33.885 4.19435C33.8959 4.37364 33.8128 4.52033 33.6957 4.63985C33.2975 5.04654 32.897 5.45169 32.4864 5.84519C32.2202 6.10053 31.9222 6.08346 31.6599 5.84286C31.42 5.62244 31.3641 5.32595 31.5853 5.07914C32.0114 4.60415 32.4624 4.14933 32.9281 3.71315C33.1104 3.54162 33.3743 3.55016 33.601 3.66425C33.8097 3.76903 33.9021 3.95763 33.885 4.19435Z" fill="#FCD024"/>
<path id="Vector_6" d="M24.0267 1.76755C24.0267 1.90881 24.0314 2.05007 24.0252 2.19055C24.0089 2.58327 23.8653 2.90459 23.4268 2.91933C22.944 2.93486 22.7888 2.59336 22.7694 2.17502C22.7554 1.87 22.7577 1.56343 22.7694 1.25841C22.7849 0.843953 22.9184 0.492365 23.4089 0.500126C23.8948 0.507887 24.0259 0.851715 24.0275 1.27393C24.0275 1.43847 24.0275 1.60301 24.0275 1.76755H24.0267Z" fill="#FCD128"/>
<path id="Vector_7" d="M35.7543 13.4774C35.2909 13.4278 34.5916 13.6397 34.5869 12.8472C34.5815 12.0556 35.273 12.2232 35.769 12.2162C36.275 12.2092 36.9673 12.0827 36.9736 12.8364C36.9798 13.5939 36.2867 13.4511 35.7543 13.4774Z" fill="#FCD128"/>
<path id="Vector_8" d="M17.2457 18.4873C18.1406 20.1715 18.9765 21.7913 19.5042 23.5469C20.0437 25.3413 19.0393 26.9759 17.3815 27.0356C15.6554 27.0977 14.4345 25.6339 14.8265 23.9443C14.9491 23.4165 15.1106 22.8911 15.3178 22.3905C15.8587 21.0819 16.3625 19.7516 17.2457 18.4881V18.4873Z" fill="#61A2D4"/>
</g>
</svg>
