<svg width="49" height="48" viewBox="0 0 49 48" fill="none" xmlns="http://www.w3.org/2000/svg">
<g id="bi:question-circle">
<g id="Group">
<path id="Vector" d="M24.5 41.5C19.8587 41.5 15.4075 39.6563 12.1256 36.3744C8.84374 33.0925 7 28.6413 7 24C7 19.3587 8.84374 14.9075 12.1256 11.6256C15.4075 8.34374 19.8587 6.5 24.5 6.5C29.1413 6.5 33.5925 8.34374 36.8744 11.6256C40.1563 14.9075 42 19.3587 42 24C42 28.6413 40.1563 33.0925 36.8744 36.3744C33.5925 39.6563 29.1413 41.5 24.5 41.5ZM24.5 44C29.8043 44 34.8914 41.8929 38.6421 38.1421C42.3929 34.3914 44.5 29.3043 44.5 24C44.5 18.6957 42.3929 13.6086 38.6421 9.85786C34.8914 6.10714 29.8043 4 24.5 4C19.1957 4 14.1086 6.10714 10.3579 9.85786C6.60714 13.6086 4.5 18.6957 4.5 24C4.5 29.3043 6.60714 34.3914 10.3579 38.1421C14.1086 41.8929 19.1957 44 24.5 44Z" fill="#FDB022"/>
<path id="Vector_2" d="M17.6373 18.465C17.6338 18.5457 17.647 18.6263 17.6758 18.7018C17.7047 18.7773 17.7487 18.846 17.8051 18.9039C17.8616 18.9617 17.9292 19.0074 18.004 19.0381C18.0787 19.0688 18.159 19.0839 18.2397 19.0825H20.3023C20.6473 19.0825 20.9222 18.8 20.9672 18.4575C21.1922 16.8175 22.3172 15.6225 24.3222 15.6225C26.0372 15.6225 27.6073 16.48 27.6073 18.5425C27.6073 20.13 26.6722 20.86 25.1947 21.97C23.5122 23.1925 22.1798 24.62 22.2748 26.9375L22.2822 27.48C22.2849 27.644 22.3519 27.8004 22.4688 27.9155C22.5857 28.0305 22.7432 28.095 22.9072 28.095H24.9347C25.1005 28.095 25.2595 28.0292 25.3767 27.9119C25.4939 27.7947 25.5597 27.6358 25.5597 27.47V27.2075C25.5597 25.4125 26.2423 24.89 28.0848 23.4925C29.6073 22.335 31.1948 21.05 31.1948 18.3525C31.1948 14.575 28.0048 12.75 24.5123 12.75C21.3448 12.75 17.8748 14.225 17.6373 18.465ZM21.5297 32.8725C21.5297 34.205 22.5923 35.19 24.0548 35.19C25.5773 35.19 26.6248 34.205 26.6248 32.8725C26.6248 31.4925 25.5748 30.5225 24.0523 30.5225C22.5923 30.5225 21.5297 31.4925 21.5297 32.8725Z" fill="#FDB022"/>
</g>
</g>
</svg>
