<svg width="22" height="22" viewBox="0 0 22 22" fill="none" xmlns="http://www.w3.org/2000/svg">
<g id="Frame 48296">
<path id="Vector" d="M11.0215 1.00084C13.2469 1.00084 15.4723 0.99973 17.6978 1.00084C19.5091 1.00195 20.9981 2.48595 20.9987 4.29342C21.0004 8.76485 21.0004 13.2363 20.9987 17.7077C20.9981 19.5041 19.5091 20.9975 17.7167 20.9981C13.238 20.9997 8.75991 20.9997 4.28126 20.9981C2.4988 20.9975 1.00202 19.5046 1.00147 17.7266C0.999799 13.2413 0.999243 8.75596 1.00147 4.27063C1.00202 2.50262 2.49769 1.00362 4.26236 1.0014C6.51558 0.998619 8.76825 1.00084 11.0215 1.00084ZM15.6441 10.32C16.8919 10.32 18.1396 10.3155 19.3874 10.3244C19.5903 10.3261 19.6436 10.2627 19.6431 10.0649C19.6364 8.21405 19.6409 6.36323 19.6364 4.51185C19.6364 4.31231 19.6181 4.10833 19.5747 3.91436C19.3613 2.95671 18.5637 2.36311 17.4893 2.36145C15.6385 2.35811 13.7877 2.36311 11.9363 2.35644C11.7412 2.35589 11.674 2.40369 11.6745 2.60933C11.6812 5.09822 11.6807 7.58655 11.6751 10.0754C11.6751 10.2655 11.7273 10.3244 11.9208 10.3233C13.1619 10.3155 14.4024 10.3194 15.6435 10.3194L15.6441 10.32ZM10.3195 6.36156C10.3195 5.12045 10.3195 3.8799 10.3195 2.63879C10.3195 2.4539 10.2296 2.36108 10.0499 2.36033C8.21301 2.36033 6.37552 2.36033 4.53859 2.36033C4.32294 2.36033 4.1084 2.37923 3.89942 2.42759C2.94955 2.64935 2.36318 3.4397 2.36096 4.50351C2.35762 6.36156 2.36263 8.21905 2.35596 10.0771C2.3554 10.2694 2.41209 10.3239 2.60329 10.3233C5.09217 10.3178 7.5805 10.3172 10.0694 10.3233C10.2745 10.3233 10.3245 10.2583 10.3234 10.0626C10.3156 8.82877 10.3195 7.59488 10.3195 6.361V6.36156ZM6.35329 11.68C5.11218 11.68 3.87163 11.68 2.63052 11.68C2.45044 11.68 2.36022 11.7725 2.35985 11.9574C2.35985 13.7876 2.35985 15.6179 2.35985 17.4476C2.35985 17.6632 2.37652 17.8783 2.42377 18.0873C2.63942 19.0439 3.43755 19.6369 4.51136 19.6386C6.36218 19.6413 8.213 19.6369 10.0644 19.6436C10.2617 19.6441 10.3245 19.5919 10.3239 19.3885C10.3173 16.8996 10.3178 14.4112 10.3239 11.9224C10.3239 11.7295 10.2673 11.675 10.0766 11.6761C8.8355 11.6839 7.59495 11.68 6.35385 11.68H6.35329ZM15.6591 11.68C14.4252 11.68 13.1913 11.68 11.9574 11.68C11.7729 11.68 11.6805 11.7701 11.6801 11.9502C11.6801 14.4251 11.6823 16.9001 11.6757 19.3746C11.6751 19.5841 11.7307 19.6447 11.943 19.6436C13.7871 19.6352 15.6307 19.6391 17.4749 19.6386C17.69 19.6386 17.9051 19.6197 18.1135 19.5691C19.0523 19.3429 19.6359 18.5559 19.6381 17.5021C19.6425 15.644 19.6364 13.7865 19.6436 11.9285C19.6442 11.7223 19.5769 11.6739 19.3819 11.675C18.1408 11.6828 16.9002 11.6789 15.6591 11.6789V11.68Z" fill="#163859" stroke="#163859" stroke-width="0.5"/>
<path id="Vector_2" d="M15.6586 5.6609C16.31 5.6609 16.9614 5.65979 17.6123 5.6609C18.0513 5.66201 18.3354 5.93046 18.3354 6.34009C18.3354 6.75027 18.0519 7.01928 17.6128 7.01983C16.31 7.02095 15.0078 7.02095 13.705 7.01983C13.2653 7.01983 12.9824 6.75083 12.9824 6.34009C12.9824 5.92713 13.2625 5.66201 13.7044 5.6609C14.3558 5.65923 15.0072 5.6609 15.6581 5.6609H15.6586Z" fill="#163859" stroke="#163859" stroke-width="0.5"/>
<path id="Vector_3" d="M5.66024 4.88294C5.66024 4.68896 5.65524 4.49499 5.66135 4.30101C5.67302 3.93029 5.96093 3.66351 6.3411 3.66406C6.71904 3.66406 7.01028 3.93418 7.01695 4.3049C7.02418 4.69285 7.02362 5.0808 7.01695 5.46875C7.01473 5.61215 7.06364 5.66551 7.20926 5.66273C7.58332 5.6555 7.95737 5.65828 8.33143 5.66162C8.73494 5.66495 9.01506 5.94397 9.01562 6.33747C9.01673 6.73432 8.73994 7.01555 8.33754 7.01944C7.98405 7.02333 7.63 7.03334 7.27763 7.01555C7.05864 7.00444 7.00528 7.08392 7.01418 7.28901C7.02974 7.63472 7.02084 7.98154 7.01751 8.3278C7.01362 8.74354 6.73294 9.02089 6.32554 9.017C5.93536 9.01311 5.66191 8.73132 5.65913 8.3228C5.65635 7.94875 5.65468 7.57469 5.66024 7.20063C5.66246 7.06557 5.613 7.01666 5.47794 7.01833C5.10388 7.02389 4.72983 7.02222 4.35577 7.01944C3.93781 7.01611 3.65935 6.73876 3.66213 6.33192C3.66435 5.93785 3.94281 5.6644 4.35021 5.66106C4.69648 5.65828 5.04274 5.66106 5.38956 5.65995C5.56853 5.65995 5.6582 5.56713 5.65857 5.38149C5.65857 5.21531 5.65857 5.04912 5.65857 4.88294H5.65913H5.66024Z" fill="#163859" stroke="#163859" stroke-width="0.5"/>
<path id="Vector_4" d="M8.43618 14.3239C8.44118 14.4746 8.33891 14.6424 8.19218 14.7897C7.94707 15.0348 7.70586 15.2838 7.45574 15.5234C7.35125 15.6234 7.35014 15.6946 7.45519 15.7952C7.7053 16.0347 7.9493 16.2815 8.19107 16.5299C8.50343 16.8506 8.51899 17.2919 8.23387 17.5676C7.95319 17.8388 7.52466 17.8172 7.21119 17.5104C6.9633 17.268 6.71653 17.0246 6.47698 16.7739C6.37693 16.6694 6.30523 16.6689 6.20519 16.7739C5.96564 17.024 5.71886 17.268 5.47097 17.5104C5.15139 17.8222 4.70897 17.8383 4.43329 17.5532C4.16206 17.2725 4.18373 16.844 4.49054 16.5305C4.73287 16.2826 4.97631 16.0358 5.22642 15.7963C5.33036 15.6962 5.33258 15.6245 5.22753 15.5239C4.97742 15.2844 4.73342 15.0376 4.49109 14.7897C4.17873 14.4701 4.16206 14.0288 4.44718 13.7526C4.72787 13.4808 5.15528 13.5019 5.46986 13.8087C5.71775 14.0505 5.96453 14.2945 6.20408 14.5446C6.30357 14.6485 6.37471 14.6513 6.47586 14.5463C6.73542 14.2767 6.99943 14.011 7.27122 13.7537C7.49465 13.5425 7.76533 13.503 8.04267 13.6259C8.30835 13.7437 8.43507 13.9649 8.43562 14.3234L8.43618 14.3239Z" fill="#163859" stroke="#163859" stroke-width="0.5"/>
<path id="Vector_5" d="M15.6481 15.0081C14.9967 15.0081 14.3453 15.0092 13.6944 15.0081C13.2604 15.007 12.9791 14.7318 12.9825 14.3178C12.9858 13.9165 13.267 13.6502 13.6944 13.6497C15.0039 13.648 16.3134 13.648 17.6228 13.6497C18.0569 13.6497 18.3382 13.9259 18.3348 14.3394C18.3315 14.7385 18.048 15.007 17.6223 15.0081C16.9642 15.0097 16.3061 15.0081 15.6475 15.0081H15.6481Z" fill="#163859" stroke="#163859" stroke-width="0.5"/>
<path id="Vector_6" d="M15.6586 16.3113C16.31 16.3113 16.9614 16.3102 17.6123 16.3113C18.0513 16.3124 18.3354 16.5809 18.3354 16.9905C18.3354 17.4007 18.0525 17.6697 17.6128 17.6702C16.31 17.6713 15.0078 17.6713 13.705 17.6702C13.2653 17.6702 12.9824 17.4012 12.9824 16.9905C12.9824 16.5775 13.2625 16.3124 13.7044 16.3113C14.3558 16.3096 15.0072 16.3113 15.6581 16.3113H15.6586Z" fill="#163859" stroke="#163859" stroke-width="0.5"/>
</g>
</svg>
