<svg width="48" height="48" viewBox="0 0 48 48" fill="none" xmlns="http://www.w3.org/2000/svg">
<rect width="48" height="48" rx="24" fill="#163859"/>
<mask id="mask0_976_3823" style="mask-type:luminance" maskUnits="userSpaceOnUse" x="14" y="15" width="20" height="20">
<path fill-rule="evenodd" clip-rule="evenodd" d="M14 15H33.499V34.499H14V15Z" fill="white"/>
</mask>
<g mask="url(#mask0_976_3823)">
<path fill-rule="evenodd" clip-rule="evenodd" d="M22.8049 26.8175L26.4619 32.7505C26.6219 33.0105 26.8719 33.0075 26.9729 32.9935C27.0739 32.9795 27.3169 32.9175 27.4049 32.6225L31.9779 17.1775C32.0579 16.9045 31.9109 16.7185 31.8449 16.6525C31.7809 16.5865 31.5979 16.4455 31.3329 16.5205L15.8769 21.0465C15.5839 21.1325 15.5199 21.3785 15.5059 21.4795C15.4919 21.5825 15.4879 21.8375 15.7469 22.0005L21.7479 25.7535L27.0499 20.3955C27.3409 20.1015 27.8159 20.0985 28.1109 20.3895C28.4059 20.6805 28.4079 21.1565 28.1169 21.4505L22.8049 26.8175ZM26.8949 34.4995C26.1989 34.4995 25.5609 34.1455 25.1849 33.5375L21.3079 27.2465L14.9519 23.2715C14.2669 22.8425 13.9089 22.0785 14.0199 21.2755C14.1299 20.4725 14.6809 19.8345 15.4549 19.6075L30.9109 15.0815C31.6219 14.8735 32.3839 15.0705 32.9079 15.5925C33.4319 16.1195 33.6269 16.8895 33.4149 17.6035L28.8419 33.0475C28.6129 33.8245 27.9729 34.3735 27.1719 34.4805C27.0779 34.4925 26.9869 34.4995 26.8949 34.4995Z" fill="#DCDCDC"/>
</g>
</svg>
