<svg width="25" height="24" viewBox="0 0 25 24" fill="none" xmlns="http://www.w3.org/2000/svg">
<g id="Icon save">
<path id="Vector" d="M21.2825 6.96751L17.5325 3.21751C17.4624 3.148 17.3793 3.09301 17.2879 3.05568C17.1966 3.01836 17.0987 2.99944 17 3.00001H5C4.60218 3.00001 4.22064 3.15805 3.93934 3.43935C3.65804 3.72066 3.5 4.10219 3.5 4.50001V19.5C3.5 19.8978 3.65804 20.2794 3.93934 20.5607C4.22064 20.842 4.60218 21 5 21H20C20.3978 21 20.7794 20.842 21.0607 20.5607C21.342 20.2794 21.5 19.8978 21.5 19.5V7.50001C21.5006 7.40131 21.4817 7.30346 21.4443 7.21208C21.407 7.1207 21.352 7.03759 21.2825 6.96751ZM9.5 4.50001H15.5V7.50001H9.5V4.50001ZM15.5 19.5H9.5V13.5H15.5V19.5ZM17 19.5V13.5C17 13.1022 16.842 12.7207 16.5607 12.4394C16.2794 12.158 15.8978 12 15.5 12H9.5C9.10218 12 8.72064 12.158 8.43934 12.4394C8.15804 12.7207 8 13.1022 8 13.5V19.5H5V4.50001H8V7.50001C8 7.89784 8.15804 8.27937 8.43934 8.56067C8.72064 8.84198 9.10218 9.00001 9.5 9.00001H15.5C15.8978 9.00001 16.2794 8.84198 16.5607 8.56067C16.842 8.27937 17 7.89784 17 7.50001V4.80751L20 7.80751V19.5H17Z" fill="white" stroke="white" stroke-width="0.5"/>
</g>
</svg>
