<svg width="25" height="24" viewBox="0 0 25 24" fill="none" xmlns="http://www.w3.org/2000/svg">
<path d="M4.2715 2C4.53162 2.02477 4.80413 2.08671 5.05187 2.21057C10.5268 4.94804 16.0017 7.68551 21.4891 10.423C22.1456 10.745 22.4924 11.2901 22.4924 12.0085C22.4924 12.7393 22.1208 13.2595 21.4643 13.594C16.9803 15.836 12.4963 18.078 8.02468 20.32C7.03374 20.8155 6.04281 21.3233 5.05187 21.8064C4.02377 22.3142 2.85941 21.7816 2.57452 20.6916C2.5002 20.3943 2.5002 20.1094 2.57452 19.8121C3.20624 17.2976 3.83797 14.7707 4.46969 12.2562C4.50685 12.0952 4.51924 11.9342 4.46969 11.7607C3.81319 9.23385 3.19386 6.70696 2.54975 4.18007C2.30201 3.17674 2.99567 2.02477 4.2715 2ZM9.67212 11.2901C10.886 11.2901 12.0875 11.2901 13.3014 11.2901C13.6235 11.2901 13.8712 11.4635 13.9827 11.7484C14.1685 12.2314 13.8217 12.7145 13.289 12.7145C10.886 12.7145 8.48299 12.7145 6.07997 12.7145C5.89416 12.7145 5.81984 12.7765 5.7703 12.9499C5.18812 15.291 4.60594 17.6197 4.01138 19.9608C3.96183 20.1342 3.87513 20.3324 4.06093 20.481C4.25912 20.642 4.42014 20.481 4.58117 20.4067C9.11472 18.1399 13.6606 15.8731 18.1942 13.594C19.0613 13.1604 19.9283 12.7269 20.7954 12.2934C20.9193 12.2314 21.0308 12.1447 21.0308 11.9837C21.0308 11.8351 20.9193 11.7607 20.7954 11.6988C20.7582 11.674 20.7211 11.6617 20.6839 11.6369C15.3205 8.96135 9.95701 6.27342 4.58117 3.59789C4.50685 3.56073 4.43253 3.51118 4.34582 3.48641C4.13525 3.41209 3.92467 3.56073 3.94945 3.78369C3.94945 3.84562 3.97422 3.90756 3.98661 3.96949C4.58117 6.33536 5.17573 8.70122 5.75791 11.0671C5.80746 11.2405 5.88178 11.2901 6.05519 11.2901C7.25671 11.2901 8.45822 11.2901 9.65973 11.2901H9.67212Z" fill="white" stroke="white" stroke-width="0.45"/>
</svg>
