<svg width="24" height="24" viewBox="0 0 24 24" fill="none" xmlns="http://www.w3.org/2000/svg">
<path d="M12.0215 2.00035C14.2469 2.00035 16.4723 1.99924 18.6978 2.00035C20.5091 2.00147 21.9981 3.48546 21.9987 5.29293C22.0004 9.76436 22.0004 14.2358 21.9987 18.7072C21.9981 20.5036 20.5091 21.997 18.7167 21.9976C14.238 21.9992 9.75991 21.9992 5.28126 21.9976C3.4988 21.997 2.00202 20.5041 2.00147 18.7261C1.9998 14.2408 1.99924 9.75547 2.00147 5.27014C2.00202 3.50213 3.49769 2.00313 5.26236 2.00091C7.51558 1.99813 9.76825 2.00035 12.0215 2.00035ZM16.6441 11.3195C17.8919 11.3195 19.1396 11.315 20.3874 11.3239C20.5903 11.3256 20.6436 11.2622 20.6431 11.0644C20.6364 9.21356 20.6409 7.36274 20.6364 5.51136C20.6364 5.31183 20.6181 5.10785 20.5747 4.91387C20.3613 3.95622 19.5637 3.36263 18.4893 3.36096C16.6385 3.35762 14.7877 3.36263 12.9363 3.35596C12.7412 3.3554 12.674 3.4032 12.6745 3.60885C12.6812 6.09773 12.6807 8.58606 12.6751 11.0749C12.6751 11.265 12.7273 11.3239 12.9208 11.3228C14.1619 11.315 15.4024 11.3189 16.6435 11.3189L16.6441 11.3195ZM11.3195 7.36107C11.3195 6.11996 11.3195 4.87941 11.3195 3.6383C11.3195 3.45341 11.2296 3.36059 11.0499 3.35985C9.21301 3.35985 7.37552 3.35985 5.53859 3.35985C5.32294 3.35985 5.1084 3.37874 4.89942 3.4271C3.94955 3.64886 3.36318 4.43922 3.36096 5.50302C3.35762 7.36107 3.36263 9.21856 3.35596 11.0766C3.3554 11.2689 3.41209 11.3234 3.60329 11.3228C6.09217 11.3173 8.5805 11.3167 11.0694 11.3228C11.2745 11.3228 11.3245 11.2578 11.3234 11.0622C11.3156 9.82828 11.3195 8.5944 11.3195 7.36051V7.36107ZM7.35329 12.6795C6.11218 12.6795 4.87163 12.6795 3.63052 12.6795C3.45044 12.6795 3.36022 12.772 3.35985 12.9569C3.35985 14.7871 3.35985 16.6174 3.35985 18.4471C3.35985 18.6628 3.37652 18.8779 3.42377 19.0868C3.63942 20.0434 4.43755 20.6364 5.51136 20.6381C7.36218 20.6409 9.213 20.6364 11.0644 20.6431C11.2617 20.6436 11.3245 20.5914 11.3239 20.388C11.3173 17.8991 11.3178 15.4108 11.3239 12.9219C11.3239 12.729 11.2673 12.6745 11.0766 12.6757C9.8355 12.6834 8.59495 12.6795 7.35385 12.6795H7.35329ZM16.6591 12.6795C15.4252 12.6795 14.1913 12.6795 12.9574 12.6795C12.7729 12.6795 12.6805 12.7696 12.6801 12.9497C12.6801 15.4247 12.6823 17.8996 12.6757 20.3741C12.6751 20.5836 12.7307 20.6442 12.943 20.6431C14.7871 20.6347 16.6307 20.6386 18.4749 20.6381C18.69 20.6381 18.9051 20.6192 19.1135 20.5686C20.0523 20.3424 20.6359 19.5554 20.6381 18.5016C20.6425 16.6435 20.6364 14.786 20.6436 12.928C20.6442 12.7218 20.5769 12.6734 20.3819 12.6745C19.1408 12.6823 17.9002 12.6784 16.6591 12.6784V12.6795Z" fill="white" stroke="white" stroke-width="0.5"/>
<path d="M16.6591 6.66041C17.3105 6.66041 17.9619 6.6593 18.6127 6.66041C19.0518 6.66152 19.3358 6.92997 19.3358 7.3396C19.3358 7.74978 19.0524 8.01879 18.6133 8.01935C17.3105 8.02046 16.0083 8.02046 14.7055 8.01935C14.2658 8.01935 13.9829 7.75034 13.9829 7.3396C13.9829 6.92664 14.263 6.66152 14.7049 6.66041C15.3563 6.65874 16.0077 6.66041 16.6585 6.66041H16.6591Z" fill="white" stroke="white" stroke-width="0.5"/>
<path d="M6.66073 5.88294C6.66073 5.68896 6.65573 5.49499 6.66184 5.30101C6.67351 4.93029 6.96142 4.66351 7.34159 4.66406C7.71953 4.66406 8.01077 4.93418 8.01744 5.3049C8.02467 5.69285 8.02411 6.0808 8.01744 6.46875C8.01522 6.61215 8.06413 6.66551 8.20975 6.66273C8.58381 6.6555 8.95786 6.65828 9.33192 6.66162C9.73543 6.66495 10.0156 6.94397 10.0161 7.33747C10.0172 7.73432 9.74043 8.01555 9.33803 8.01944C8.98454 8.02333 8.63049 8.03334 8.27811 8.01555C8.05913 8.00444 8.00577 8.08392 8.01466 8.28901C8.03023 8.63472 8.02133 8.98154 8.018 9.3278C8.01411 9.74354 7.73343 10.0209 7.32602 10.017C6.93585 10.0131 6.6624 9.73132 6.65962 9.3228C6.65684 8.94875 6.65517 8.57469 6.66073 8.20063C6.66295 8.06557 6.61349 8.01666 6.47843 8.01833C6.10437 8.02389 5.73031 8.02222 5.35626 8.01944C4.9383 8.01611 4.65984 7.73876 4.66262 7.33192C4.66484 6.93785 4.9433 6.6644 5.3507 6.66106C5.69697 6.65828 6.04323 6.66106 6.39005 6.65995C6.56902 6.65995 6.65869 6.56713 6.65906 6.38149C6.65906 6.21531 6.65906 6.04912 6.65906 5.88294H6.65962H6.66073Z" fill="white" stroke="white" stroke-width="0.5"/>
<path d="M9.43618 15.3235C9.44118 15.4741 9.33891 15.6419 9.19218 15.7892C8.94707 16.0343 8.70586 16.2833 8.45574 16.5229C8.35125 16.6229 8.35014 16.6941 8.45519 16.7947C8.7053 17.0342 8.9493 17.281 9.19107 17.5294C9.50343 17.8501 9.51899 18.2914 9.23387 18.5671C8.95319 18.8384 8.52466 18.8167 8.21119 18.5099C7.9633 18.2675 7.71653 18.0241 7.47698 17.7734C7.37693 17.6689 7.30523 17.6684 7.20519 17.7734C6.96564 18.0235 6.71886 18.2675 6.47097 18.5099C6.15139 18.8217 5.70897 18.8378 5.43329 18.5527C5.16206 18.272 5.18373 17.8435 5.49054 17.53C5.73287 17.2821 5.97631 17.0353 6.22642 16.7958C6.33036 16.6957 6.33258 16.624 6.22753 16.5234C5.97742 16.2839 5.73342 16.0371 5.49109 15.7892C5.17873 15.4696 5.16206 15.0283 5.44718 14.7521C5.72787 14.4803 6.15528 14.5014 6.46986 14.8082C6.71775 15.05 6.96453 15.294 7.20408 15.5441C7.30357 15.648 7.37471 15.6508 7.47586 15.5458C7.73542 15.2762 7.99943 15.0105 8.27122 14.7532C8.49465 14.542 8.76533 14.5025 9.04267 14.6254C9.30835 14.7432 9.43507 14.9644 9.43562 15.3229L9.43618 15.3235Z" fill="white" stroke="white" stroke-width="0.5"/>
<path d="M16.6486 16.0081C15.9972 16.0081 15.3458 16.0092 14.6949 16.0081C14.2608 16.007 13.9796 15.7318 13.9829 15.3178C13.9863 14.9165 14.2675 14.6502 14.6949 14.6497C16.0044 14.648 17.3139 14.648 18.6233 14.6497C19.0574 14.6497 19.3387 14.9259 19.3353 15.3394C19.332 15.7385 19.0485 16.007 18.6228 16.0081C17.9647 16.0097 17.3066 16.0081 16.648 16.0081H16.6486Z" fill="white" stroke="white" stroke-width="0.5"/>
<path d="M16.6586 17.3108C17.31 17.3108 17.9614 17.3097 18.6123 17.3108C19.0513 17.3119 19.3354 17.5804 19.3354 17.99C19.3354 18.4002 19.0525 18.6692 18.6128 18.6697C17.31 18.6708 16.0078 18.6708 14.705 18.6697C14.2653 18.6697 13.9824 18.4007 13.9824 17.99C13.9824 17.577 14.2625 17.3119 14.7044 17.3108C15.3558 17.3091 16.0072 17.3108 16.6581 17.3108H16.6586Z" fill="white" stroke="white" stroke-width="0.5"/>
</svg>
