<svg width="36" height="36" viewBox="0 0 36 36" fill="none" xmlns="http://www.w3.org/2000/svg">
<g id="Icon add">
<path id="Vector" d="M16.785 25.65C16.785 26.3956 17.3894 27 18.135 27C18.8806 27 19.485 26.3956 19.485 25.65V19.53H25.65C26.3956 19.53 27 18.9256 27 18.18C27 17.4344 26.3956 16.83 25.65 16.83H19.485V10.35C19.485 9.60441 18.8806 9 18.135 9C17.3894 9 16.785 9.60442 16.785 10.35V16.83H10.35C9.60441 16.83 9 17.4344 9 18.18C9 18.9256 9.60442 19.53 10.35 19.53H16.785V25.65ZM18.012 36C15.5299 36 13.1974 35.5275 11.0145 34.5825C8.83149 33.6375 6.9225 32.3475 5.2875 30.7125C3.6525 29.0775 2.3625 27.1674 1.4175 24.9822C0.4725 22.797 0 20.4621 0 17.9775C0 15.4929 0.4725 13.158 1.4175 10.9728C2.3625 8.78761 3.6525 6.885 5.2875 5.265C6.9225 3.645 8.83261 2.3625 11.0178 1.4175C13.203 0.4725 15.5379 0 18.0225 0C20.5071 0 22.842 0.4725 25.0272 1.4175C27.2124 2.3625 29.115 3.645 30.735 5.265C32.355 6.885 33.6375 8.79 34.5825 10.98C35.5275 13.17 36 15.506 36 17.988C36 20.47 35.5275 22.8026 34.5825 24.9855C33.6375 27.1685 32.355 29.0747 30.735 30.7042C29.115 32.3337 27.21 33.6237 25.02 34.5742C22.83 35.5247 20.494 36 18.012 36ZM18.0225 33.3C22.2675 33.3 25.875 31.8075 28.845 28.8225C31.815 25.8375 33.3 22.2225 33.3 17.9775C33.3 13.7325 31.8178 10.125 28.8535 7.155C25.8891 4.185 22.2712 2.7 18 2.7C13.77 2.7 10.1625 4.18218 7.1775 7.14654C4.1925 10.1109 2.7 13.7288 2.7 18C2.7 22.23 4.1925 25.8375 7.1775 28.8225C10.1625 31.8075 13.7775 33.3 18.0225 33.3Z" fill="#163859"/>
</g>
</svg>
