<svg width="24" height="24" viewBox="0 0 24 24" fill="none" xmlns="http://www.w3.org/2000/svg">
<path d="M3.91061 22.0002C3.52193 22.0002 3.26652 21.8558 3.11105 21.5671C2.95558 21.2672 2.96669 20.9674 3.14436 20.6787C3.2221 20.5676 3.32204 20.4677 3.42199 20.3677C6.12049 17.6692 8.81899 14.9707 11.5175 12.2722C11.6878 12.102 11.6878 11.928 11.5175 11.7503C8.80788 9.02958 6.09828 6.31998 3.38867 3.61037C3.17768 3.39938 3 3.18838 3 2.86634C3.0111 2.52209 3.15547 2.26667 3.4553 2.11121C3.75514 1.94463 4.07718 1.96684 4.36591 2.16673C4.45475 2.23336 4.54359 2.31109 4.62132 2.38883C7.57524 5.34274 10.5292 8.28555 13.472 11.2395C14.005 11.7725 14.005 12.2278 13.472 12.7608C10.518 15.7148 7.55303 18.6798 4.59911 21.6337C4.38812 21.8447 4.16602 22.0113 3.91061 22.0002Z" fill="white" stroke="white" stroke-width="0.3"/>
<path d="M11.5624 2.01081C11.8512 1.99971 12.0733 2.15518 12.2732 2.35507C13.7501 3.84313 15.2382 5.32009 16.7151 6.79704C18.1921 8.274 19.6691 9.75096 21.146 11.2279C21.7013 11.7832 21.7013 12.2274 21.146 12.7715C18.1921 15.7254 15.2493 18.6682 12.2954 21.6221C12.0844 21.8331 11.8512 22.0108 11.5291 21.9997C11.196 21.9997 10.9406 21.8442 10.7962 21.5555C10.6407 21.2557 10.6518 20.9558 10.8406 20.6671C10.9184 20.5561 11.0183 20.4561 11.1182 20.3562C13.8167 17.6577 16.5152 14.9592 19.2137 12.2607C19.384 12.0904 19.384 11.9238 19.2137 11.761C16.493 9.04024 13.7834 6.31953 11.0627 3.60993C10.8517 3.39893 10.6963 3.18794 10.6963 2.86589C10.6963 2.36617 11.0516 2.02192 11.5624 2.02192V2.01081Z" fill="white" stroke="white" stroke-width="0.3"/>
</svg>
