<svg width="20" height="21" viewBox="0 0 20 21" fill="none" xmlns="http://www.w3.org/2000/svg">
<g id="Frame 625104">
<path id="Combined-Shape" fill-rule="evenodd" clip-rule="evenodd" d="M5.96828 7.27944C6.35145 7.27944 6.66243 7.59042 6.66243 7.97359C6.66243 8.35676 6.35145 8.66774 5.96828 8.66774H5.10475C3.60631 8.66774 2.3883 9.88575 2.3883 11.3833V15.8952C2.3883 17.3937 3.60631 18.6117 5.10475 18.6117H15.406C16.9035 18.6117 18.1224 17.3937 18.1224 15.8952V11.3749C18.1224 9.88204 16.9081 8.66774 15.4161 8.66774H14.5434C14.1602 8.66774 13.8492 8.35676 13.8492 7.97359C13.8492 7.59042 14.1602 7.27944 14.5434 7.27944H15.4161C17.6735 7.27944 19.5107 9.11663 19.5107 11.3749V15.8952C19.5107 18.1591 17.6689 20 15.406 20H5.10475C2.84182 20 1 18.1591 1 15.8952V11.3833C1 9.12033 2.84182 7.27944 5.10475 7.27944H5.96828ZM10.7464 1.19644L13.4453 3.90641C13.7156 4.17852 13.7146 4.61723 13.4435 4.88748C13.1714 5.15774 12.7326 5.15774 12.4624 4.88563L10.9486 3.3666L10.9491 13.5239H9.56084L9.56028 3.3666L8.04851 4.88563C7.91338 5.02261 7.73475 5.09017 7.55705 5.09017C7.38027 5.09017 7.20257 5.02261 7.06744 4.88748C6.79626 4.61723 6.79441 4.17852 7.06559 3.90641L9.76353 1.19644C10.0236 0.934518 10.4864 0.934518 10.7464 1.19644Z" fill="white" stroke="white" stroke-width="0.7"/>
</g>
</svg>
