<svg width="48" height="48" viewBox="0 0 48 48" fill="none" xmlns="http://www.w3.org/2000/svg">
<path d="M22.38 34.2C22.38 35.1941 23.1859 36 24.18 36C25.1741 36 25.98 35.1941 25.98 34.2V26.04H34.2C35.1941 26.04 36 25.2341 36 24.24C36 23.2459 35.1941 22.44 34.2 22.44H25.98V13.8C25.98 12.8059 25.1741 12 24.18 12C23.1859 12 22.38 12.8059 22.38 13.8V22.44H13.8C12.8059 22.44 12 23.2459 12 24.24C12 25.2341 12.8059 26.04 13.8 26.04H22.38V34.2ZM24.016 48C20.7066 48 17.5966 47.37 14.686 46.11C11.7753 44.85 9.23 43.13 7.05 40.95C4.87 38.77 3.15 36.2232 1.89 33.3095C0.63 30.3959 0 27.2828 0 23.97C0 20.6572 0.63 17.5441 1.89 14.6305C3.15 11.7168 4.87 9.18 7.05 7.02C9.23 4.86 11.7768 3.15 14.6905 1.89C17.6041 0.63 20.7172 0 24.03 0C27.3428 0 30.4559 0.63 33.3695 1.89C36.2832 3.15 38.82 4.86 40.98 7.02C43.14 9.18 44.85 11.72 46.11 14.64C47.37 17.56 48 20.6747 48 23.984C48 27.2934 47.37 30.4034 46.11 33.314C44.85 36.2247 43.14 38.7663 40.98 40.939C38.82 43.1116 36.28 44.8316 33.36 46.099C30.44 47.3663 27.3253 48 24.016 48ZM24.03 44.4C29.69 44.4 34.5 42.41 38.46 38.43C42.42 34.45 44.4 29.63 44.4 23.97C44.4 18.31 42.4238 13.5 38.4713 9.54C34.5188 5.58 29.695 3.6 24 3.6C18.36 3.6 13.55 5.57624 9.57 9.52872C5.59 13.4812 3.6 18.305 3.6 24C3.6 29.64 5.59 34.45 9.57 38.43C13.55 42.41 18.37 44.4 24.03 44.4Z" fill="#163859"/>
</svg>
