<svg width="40" height="40" viewBox="0 0 40 40" fill="none" xmlns="http://www.w3.org/2000/svg">
<ellipse opacity="0.05" cx="20.0015" cy="20" rx="20.0015" ry="20" fill="#163859"/>
<mask id="mask0_979_4984" style="mask-type:luminance" maskUnits="userSpaceOnUse" x="11" y="9" width="19" height="18">
<path fill-rule="evenodd" clip-rule="evenodd" d="M11 9H29.4969V26.348H11V9Z" fill="white"/>
</mask>
<g mask="url(#mask0_979_4984)">
<path fill-rule="evenodd" clip-rule="evenodd" d="M20.247 10.5C16.752 10.5 14.316 13.238 14.316 15.695C14.316 17.774 13.739 18.735 13.229 19.583C12.82 20.264 12.497 20.802 12.497 21.971C12.664 23.857 13.909 24.848 20.247 24.848C26.55 24.848 27.834 23.813 28 21.906C27.997 20.802 27.674 20.264 27.265 19.583C26.755 18.735 26.178 17.774 26.178 15.695C26.178 13.238 23.742 10.5 20.247 10.5M20.247 26.348C15.571 26.348 11.345 26.018 11 22.035C10.997 20.387 11.5 19.549 11.944 18.811C12.393 18.063 12.816 17.358 12.816 15.695C12.816 12.462 15.802 9 20.247 9C24.692 9 27.678 12.462 27.678 15.695C27.678 17.358 28.101 18.063 28.55 18.811C28.994 19.549 29.497 20.387 29.497 21.971C29.148 26.018 24.923 26.348 20.247 26.348" fill="#163859"/>
</g>
<path fill-rule="evenodd" clip-rule="evenodd" d="M20.198 30.5001H20.196C19.075 30.4991 18.014 30.0051 17.209 29.1081C16.932 28.8011 16.957 28.3261 17.265 28.0501C17.573 27.7721 18.047 27.7971 18.324 28.1061C18.842 28.6831 19.507 29.0001 20.197 29.0001H20.198C20.891 29.0001 21.559 28.6831 22.078 28.1051C22.356 27.7981 22.83 27.7731 23.137 28.0501C23.445 28.3271 23.47 28.8021 23.193 29.1091C22.385 30.0061 21.322 30.5001 20.198 30.5001" fill="#163859"/>
</svg>
