<svg width="25" height="24" viewBox="0 0 25 24" fill="none" xmlns="http://www.w3.org/2000/svg">
<path d="M4.75 7H6.41667H19.75" stroke="white" stroke-width="2" stroke-linecap="round" stroke-linejoin="round"/>
<path d="M8.91699 7.00033V5.33366C8.91699 4.89163 9.09259 4.46771 9.40515 4.15515C9.71771 3.84259 10.1416 3.66699 10.5837 3.66699H13.917C14.359 3.66699 14.7829 3.84259 15.0955 4.15515C15.4081 4.46771 15.5837 4.89163 15.5837 5.33366V7.00033M18.0837 7.00033V18.667C18.0837 19.109 17.9081 19.5329 17.5955 19.8455C17.2829 20.1581 16.859 20.3337 16.417 20.3337H8.08366C7.64163 20.3337 7.21771 20.1581 6.90515 19.8455C6.59259 19.5329 6.41699 19.109 6.41699 18.667V7.00033H18.0837Z" stroke="white" stroke-width="2" stroke-linecap="round" stroke-linejoin="round"/>
<path d="M10.583 11.167V16.167" stroke="white" stroke-width="2" stroke-linecap="round" stroke-linejoin="round"/>
<path d="M13.917 11.167V16.167" stroke="white" stroke-width="2" stroke-linecap="round" stroke-linejoin="round"/>
</svg>
