<svg width="24" height="24" viewBox="0 0 24 24" fill="none" xmlns="http://www.w3.org/2000/svg">
<path d="M12.2039 21.46C11.9106 21.46 11.6706 21.36 11.4839 21.16C11.2972 20.9733 11.2039 20.74 11.2039 20.46V18.68L11.6639 19.12C10.7439 19.0933 9.92391 18.9733 9.20391 18.76C8.49724 18.5467 7.89724 18.3 7.40391 18.02C7.16391 17.8733 6.99724 17.6933 6.90391 17.48C6.81057 17.2533 6.77724 17.0267 6.80391 16.8C6.83057 16.5733 6.91057 16.38 7.04391 16.22C7.19057 16.0467 7.37057 15.94 7.58391 15.9C7.79724 15.8467 8.04391 15.9 8.32391 16.06C8.69724 16.2733 9.18391 16.48 9.78391 16.68C10.3972 16.8667 11.1306 16.96 11.9839 16.96C12.6506 16.96 13.1906 16.88 13.6039 16.72C14.0172 16.56 14.3172 16.34 14.5039 16.06C14.7039 15.78 14.8039 15.46 14.8039 15.1C14.8039 14.8067 14.7372 14.5533 14.6039 14.34C14.4706 14.1133 14.2506 13.92 13.9439 13.76C13.6372 13.5867 13.2239 13.4467 12.7039 13.34L10.5839 12.88C9.37057 12.6133 8.46391 12.1667 7.86391 11.54C7.26391 10.9133 6.96391 10.0933 6.96391 9.08C6.96391 8.29333 7.15724 7.59333 7.54391 6.98C7.93057 6.35333 8.47057 5.85333 9.16391 5.48C9.85724 5.10667 10.6706 4.88667 11.6039 4.82L11.2039 5.12V3.44C11.2039 3.16 11.2972 2.92667 11.4839 2.74C11.6706 2.54 11.9106 2.44 12.2039 2.44C12.4839 2.44 12.7172 2.54 12.9039 2.74C13.1039 2.92667 13.2039 3.16 13.2039 3.44V5.12L12.7839 4.8C13.3572 4.81333 13.9839 4.92667 14.6639 5.14C15.3572 5.35333 15.9506 5.65333 16.4439 6.04C16.6439 6.2 16.7772 6.38667 16.8439 6.6C16.9106 6.8 16.9172 7 16.8639 7.2C16.8106 7.38667 16.7106 7.54667 16.5639 7.68C16.4172 7.81333 16.2306 7.89333 16.0039 7.92C15.7906 7.93333 15.5439 7.86 15.2639 7.7C14.8772 7.47333 14.4439 7.29333 13.9639 7.16C13.4839 7.01333 12.9106 6.94 12.2439 6.94C11.3906 6.94 10.7172 7.13333 10.2239 7.52C9.74391 7.89333 9.50391 8.38667 9.50391 9C9.50391 9.45333 9.65057 9.82 9.94391 10.1C10.2372 10.3667 10.7372 10.58 11.4439 10.74L13.6239 11.22C14.9039 11.5 15.8439 11.9467 16.4439 12.56C17.0439 13.16 17.3439 13.9533 17.3439 14.94C17.3439 15.7133 17.1506 16.4 16.7639 17C16.3772 17.5867 15.8439 18.06 15.1639 18.42C14.4972 18.7667 13.7172 18.9867 12.8239 19.08L13.2039 18.66V20.46C13.2039 20.74 13.1106 20.9733 12.9239 21.16C12.7372 21.36 12.4972 21.46 12.2039 21.46Z" fill="#163859"/>
</svg>
