<svg width="40" height="40" viewBox="0 0 40 40" fill="none" xmlns="http://www.w3.org/2000/svg">
<ellipse opacity="0.05" cx="20.0015" cy="20" rx="20.0015" ry="20" fill="#163859"/>
<path fill-rule="evenodd" clip-rule="evenodd" d="M19.889 20.6185H19.921C22.849 20.6185 25.23 18.2375 25.23 15.3095C25.23 12.3815 22.849 9.99951 19.921 9.99951C16.992 9.99951 14.61 12.3815 14.61 15.3065C14.6 18.2265 16.967 20.6095 19.889 20.6185ZM16.038 15.3095C16.038 13.1685 17.78 11.4275 19.921 11.4275C22.061 11.4275 23.802 13.1685 23.802 15.3095C23.802 17.4495 22.061 19.1915 19.921 19.1915H19.892C17.76 19.1835 16.031 17.4435 16.038 15.3095Z" fill="#163859"/>
<path fill-rule="evenodd" clip-rule="evenodd" d="M12 26.1728C12 29.8699 17.962 29.8699 19.921 29.8699C23.32 29.8699 27.84 29.4888 27.84 26.1929C27.84 22.4958 21.88 22.4958 19.921 22.4958C16.521 22.4958 12 22.8769 12 26.1728ZM13.5 26.1728C13.5 24.7278 15.66 23.9958 19.921 23.9958C24.181 23.9958 26.34 24.7348 26.34 26.1929C26.34 27.6378 24.181 28.3699 19.921 28.3699C15.66 28.3699 13.5 27.6308 13.5 26.1728Z" fill="#163859"/>
</svg>
