<svg width="24" height="24" viewBox="0 0 24 24" fill="none" xmlns="http://www.w3.org/2000/svg">
<g clip-path="url(#clip0_307_1317)">
<path d="M22.0002 12.7949C21.8361 13.3353 21.4228 13.7002 21.0606 14.0941C19.7186 15.5523 18.2235 16.8234 16.4667 17.7651C15.3212 18.379 14.1116 18.7959 12.814 18.9257C11.2714 19.0794 9.80072 18.7855 8.39102 18.1648C6.58056 17.368 5.04266 16.1839 3.64652 14.8013C3.18895 14.3485 2.74858 13.8794 2.34157 13.3802C1.88348 12.8179 1.88817 12.132 2.35147 11.578C3.75231 9.90517 5.34701 8.45638 7.25597 7.37709C8.39623 6.73191 9.60425 6.26914 10.9066 6.07996C12.2725 5.8814 13.5988 6.06485 14.8928 6.51929C16.5157 7.08942 17.9348 8.00559 19.2397 9.10886C20.1204 9.85305 20.9241 10.6749 21.6641 11.5598C21.8178 11.7438 21.9174 11.9512 21.9997 12.1706V12.7949H22.0002ZM12.0161 16.7629C14.3686 16.7629 16.2911 14.8472 16.2932 12.5015C16.2958 10.134 14.3832 8.20571 12.0312 8.20415C9.65584 8.20259 7.73386 10.1178 7.73438 12.4864C7.73438 14.8461 9.65376 16.7634 12.0161 16.7629Z" fill="#636366"/>
<path d="M15.1075 12.4838C15.1075 14.2056 13.7328 15.5778 12.0083 15.5773C10.2875 15.5773 8.9179 14.2015 8.91895 12.4744C8.91999 10.7588 10.3021 9.38711 12.0281 9.38867C13.7333 9.39024 15.1075 10.7718 15.1075 12.4838Z" fill="#636366"/>
</g>
<defs>
<clipPath id="clip0_307_1317">
<rect width="20" height="12.9651" fill="white" transform="translate(2 6)"/>
</clipPath>
</defs>
</svg>
