<svg width="40" height="40" viewBox="0 0 40 40" fill="none" xmlns="http://www.w3.org/2000/svg">
<ellipse opacity="0.05" cx="20.0015" cy="20" rx="20.0015" ry="20" fill="#163859"/>
<path d="M19.7256 28C19.3459 28 19.0321 27.7178 18.9824 27.3518L18.9756 27.25L18.9756 12.25C18.9756 11.8358 19.3114 11.5 19.7256 11.5C20.1053 11.5 20.4191 11.7822 20.4687 12.1482L20.4756 12.25L20.4756 27.25C20.4756 27.6642 20.1398 28 19.7256 28Z" fill="#163859"/>
<path d="M14.2325 18.829C13.9402 19.1225 13.4653 19.1235 13.1718 18.8313C12.905 18.5656 12.8799 18.149 13.0971 17.8549L13.1695 17.7706L19.1935 11.7206C19.46 11.453 19.8781 11.4286 20.1722 11.6476L20.2564 11.7206L26.2814 17.7706C26.5737 18.0641 26.5727 18.5389 26.2792 18.8312C26.0124 19.0969 25.5957 19.1203 25.3025 18.9018L25.2186 18.829L19.7247 13.313L14.2325 18.829Z" fill="#163859"/>
</svg>
