<svg width="25" height="24" viewBox="0 0 25 24" fill="none" xmlns="http://www.w3.org/2000/svg">
<path d="M13.3049 21.9853H11.6664C11.3459 21.9386 11.0213 21.9107 10.7057 21.8435C6.74918 21.0074 4.15 18.6534 2.88361 14.8222C2.66967 14.173 2.57705 13.496 2.5 12.8189C2.5 12.2722 2.5 11.7263 2.5 11.1804C2.52377 10.9812 2.54262 10.7804 2.57295 10.582C2.9082 8.3845 3.83688 6.47466 5.42377 4.91892C7.62623 2.75991 10.2844 1.79761 13.368 2.03532C14.7762 2.14433 16.0951 2.55581 17.3262 3.24024C21.009 5.28614 23.159 9.45499 22.3197 13.773C21.5484 17.7435 19.1426 20.3345 15.309 21.6017C14.6598 21.8165 13.9828 21.9083 13.3049 21.9853ZM20.818 11.9919C20.7697 7.34761 17.0475 3.66565 12.4738 3.67548C7.8541 3.68532 4.16311 7.41073 4.1623 11.996C4.16148 16.6042 7.87787 20.3238 12.4877 20.3214C17.1139 20.3189 20.7828 16.5829 20.8172 11.9911L20.818 11.9919Z" fill="white" stroke="white" stroke-width="0.3"/>
<path d="M7.58056 11.1267C7.85351 11.1201 8.06498 11.2447 8.25105 11.4316C9.06826 12.2512 9.89121 13.0644 10.701 13.8906C10.8461 14.0389 10.9207 14.0193 11.0543 13.8848C12.9027 12.0291 14.756 10.1775 16.6092 8.32583C16.692 8.24305 16.7748 8.16026 16.8666 8.08813C17.1961 7.82747 17.6478 7.84632 17.9551 8.12993C18.2592 8.41026 18.3158 8.86436 18.0806 9.2119C18.0191 9.30288 17.942 9.38403 17.8642 9.4619C15.774 11.5537 13.6822 13.6455 11.5912 15.7365C11.106 16.2217 10.6568 16.2234 10.1748 15.7414C9.13548 14.7029 8.09777 13.6635 7.05761 12.6258C6.81007 12.3791 6.68056 12.1012 6.77728 11.7471C6.87728 11.3799 7.19941 11.1308 7.58056 11.1283V11.1267Z" fill="white" stroke="white" stroke-width="0.3"/>
</svg>
