<svg width="72" height="30" viewBox="0 0 72 30" fill="none" xmlns="http://www.w3.org/2000/svg">
<g clip-path="url(#clip0_842_3952)">
<mask id="mask0_842_3952" style="mask-type:luminance" maskUnits="userSpaceOnUse" x="0" y="0" width="72" height="30">
<path d="M72 0H0V29.167H72V0Z" fill="white"/>
</mask>
<g mask="url(#mask0_842_3952)">
<path d="M36.0443 0.0477022C46.4702 0.0477022 56.896 0.0901268 67.3166 0.0211867C70.1696 -2.56107e-05 72.0204 2.42879 71.9939 4.6773C71.9144 11.3115 71.9674 17.9509 71.9674 24.5904C71.9674 27.226 70.0583 29.151 67.4226 29.151C46.4648 29.151 25.5017 29.1457 4.54395 29.1669C2.19468 29.1669 -0.000797362 27.1889 0.0257181 24.6328C0.0893551 18.1312 0.152992 11.6243 -0.000797362 5.11745C-0.0697375 2.16363 2.03559 -0.0371472 5.16441 -2.56097e-05C15.4577 0.132552 25.751 0.0477022 36.0443 0.0477022ZM23.7199 26.9662C30.1366 26.9662 36.5534 26.9662 42.9701 26.9715C43.4209 26.9715 43.6701 26.9503 43.6701 26.3616C43.6489 18.5024 43.6489 10.6433 43.6701 2.78409C43.6701 2.29091 43.5322 2.16894 43.0444 2.16894C30.301 2.18485 17.5524 2.17954 4.8091 2.17954C3.11742 2.17954 2.18938 3.12349 2.18938 4.82578V24.2828C2.18938 26.1071 3.05378 26.9715 4.87274 26.9715H23.7199V26.9662ZM55.5119 20.6025C56.1801 20.6025 56.7687 20.5759 57.3521 20.6131C57.7339 20.6396 57.893 20.4699 58.0203 20.1464C58.2695 19.5206 58.5877 18.9214 58.7998 18.285C58.9748 17.7759 59.2294 17.5903 59.7862 17.6115C61.0536 17.6592 62.3264 17.6274 63.5991 17.6274C64.7022 17.6274 65.4711 18.1418 65.9007 19.1653C66.3037 20.1252 67.0249 20.6025 68.0696 20.6025C68.7961 20.6025 68.8014 20.6025 68.4886 19.9184C66.8499 16.3176 65.1635 12.7327 63.5938 9.10007C63.1961 8.18263 62.6976 7.92809 61.7908 8.02354C61.3771 8.06597 61.1491 8.1243 60.9635 8.54324C59.8923 10.9668 58.7733 13.3744 57.6809 15.7926C56.965 17.3729 56.2596 18.9532 55.5172 20.6025H55.5119ZM46.7565 14.2812V18.8684C46.7565 20.6555 46.7565 20.6396 48.533 20.6237C48.9785 20.6237 49.0846 20.4752 49.0793 20.0562C49.0581 18.5926 49.0846 17.1289 49.0634 15.6706C49.0581 15.2516 49.1535 15.1085 49.599 15.1244C50.8452 15.1562 52.0967 15.135 53.3429 15.135C54.674 15.135 54.6475 15.135 54.6634 13.7986C54.6634 13.3266 54.4831 13.2789 54.0907 13.2842C52.5793 13.3001 51.0679 13.2842 49.5565 13.3001C49.2012 13.3001 49.0474 13.2259 49.0634 12.8387C49.0899 12.0115 49.0899 11.1789 49.0634 10.3516C49.0528 9.98038 49.1694 9.87432 49.5406 9.87962C50.9194 9.90083 52.2982 9.88492 53.6823 9.88492C55.0665 9.88492 55.0452 9.88492 55.024 8.50082C55.0187 8.10309 54.8755 8.04475 54.5255 8.04475C52.1179 8.05536 49.7103 8.06066 47.2974 8.04475C46.8573 8.04475 46.7459 8.16672 46.7512 8.59627C46.7724 10.4948 46.7618 12.3933 46.7618 14.2971L46.7565 14.2812Z" fill="#F5F6F7"/>
<path d="M23.7204 26.9716H4.86793C3.04367 26.9716 2.18457 26.1072 2.18457 24.283V4.83653C2.18457 3.13424 3.11261 2.19029 4.8043 2.19029C17.5476 2.19029 30.2962 2.19029 43.0395 2.17969C43.5274 2.17969 43.6653 2.30166 43.6653 2.79485C43.6494 10.654 43.6494 18.5132 43.6653 26.3724C43.6653 26.961 43.4161 26.9822 42.9653 26.9822C36.5486 26.9716 30.1318 26.9769 23.7151 26.9769L23.7204 26.9716ZM26.0379 13.0351C26.0803 13.0563 26.128 13.0722 26.1704 13.0934V18.9215C26.1704 20.592 26.1704 20.5761 27.825 20.5973C28.3235 20.6026 28.4879 20.4912 28.4826 19.9556C28.4561 16.4609 28.472 12.9662 28.472 9.47673C28.472 8.0449 28.472 8.06611 27.003 8.03429C26.5416 8.02369 26.3136 8.17218 26.1121 8.58051C25.3219 10.2086 24.5 11.8154 23.6833 13.4275C22.9462 14.8753 22.1984 16.3177 21.4295 17.8079C21.334 17.6382 21.2651 17.5268 21.212 17.4155C19.8279 14.7215 18.3908 12.0593 17.0968 9.32294C16.6196 8.31006 16.084 7.8699 14.9491 8.01308C14.4241 8.08202 14.3233 8.2146 14.3286 8.69188C14.3445 12.0752 14.3392 15.4586 14.3392 18.842C14.3392 20.6185 14.3392 20.5973 16.1211 20.592C16.5824 20.592 16.6514 20.4276 16.6514 20.0246C16.6355 17.9086 16.6408 15.7874 16.6514 13.6715C16.6514 13.4965 16.5559 13.295 16.7521 13.1147C16.837 13.2631 16.9218 13.3851 16.9908 13.523C18.0832 15.676 19.1916 17.8238 20.2522 19.9981C20.4855 20.4753 20.7507 20.6609 21.2492 20.5867C21.4189 20.5602 21.5992 20.5602 21.7742 20.5867C22.156 20.645 22.3681 20.4806 22.5272 20.1359C22.9992 19.1284 23.4977 18.1367 23.9909 17.1397C24.6697 15.7662 25.3591 14.398 26.0485 13.0298L26.0379 13.0351ZM41.4645 20.5867C41.6607 20.5867 41.8623 20.5708 42.0532 20.5867C42.5994 20.645 42.5623 20.4223 42.382 20.0299C40.7327 16.4344 39.0463 12.8548 37.4819 9.21688C37.0683 8.25172 36.5698 7.88581 35.5675 8.02899C35.244 8.07672 35.0266 8.09263 34.8728 8.44263C33.1175 12.351 31.3462 16.2435 29.5697 20.1412C29.4 20.5178 29.5167 20.5973 29.8773 20.5867C30.3174 20.5708 30.7576 20.5549 31.1871 20.5867C31.5584 20.6185 31.7387 20.4647 31.8659 20.1412C32.1205 19.4943 32.4281 18.8685 32.6614 18.2162C32.8258 17.7602 33.0644 17.5905 33.5629 17.6064C34.6978 17.6488 35.838 17.6117 36.9781 17.6223C37.6728 17.6223 38.5319 17.4102 39.0198 17.7389C39.5077 18.0677 39.6403 18.9374 39.916 19.5738C40.3509 20.5814 40.3456 20.5814 41.4592 20.5814L41.4645 20.5867ZM4.44369 17.7496C4.23686 18.195 4.07777 18.6193 3.84974 19.0064C3.64822 19.3458 3.7755 19.5208 4.05656 19.6852C6.45355 21.0693 8.96191 21.3503 11.5233 20.2579C12.865 19.6852 13.5279 18.5715 13.5067 17.0814C13.4854 15.6813 12.6529 14.9071 11.4809 14.3821C10.7809 14.0692 10.049 13.8624 9.30661 13.6715C8.48464 13.4594 7.64145 13.3215 6.8831 12.9078C6.23082 12.5525 5.99219 11.9692 6.1937 11.2586C6.39522 10.548 6.91492 10.1767 7.58311 10.007C8.95661 9.65704 10.2665 9.89568 11.518 10.5267C11.8521 10.6964 12.1703 11.1843 12.4938 11.0093C12.7748 10.8555 12.8332 10.3305 13.0294 9.99644C13.2627 9.60401 13.1301 9.40249 12.7801 9.16385C11.8521 8.52748 10.8127 8.2093 9.72026 8.09263C8.09751 7.91763 6.5384 8.10324 5.18612 9.15325C3.54216 10.4313 3.20276 13.6184 5.79597 14.7003C6.46416 14.976 7.13235 15.22 7.83236 15.395C8.69676 15.6071 9.58768 15.7556 10.3991 16.1427C11.4756 16.6571 11.5816 17.9352 10.59 18.598C10.1286 18.9109 9.59298 19.0223 9.04146 19.0594C7.36568 19.1708 5.83309 18.7943 4.43838 17.7496H4.44369Z" fill="#163859"/>
<path d="M55.5126 20.6028C56.2551 18.9535 56.9604 17.3732 57.6763 15.7929C58.774 13.38 59.8877 10.9724 60.9589 8.54358C61.1445 8.12463 61.3725 8.061 61.7862 8.02388C62.693 7.93372 63.1968 8.18827 63.5892 9.1004C65.1589 12.733 66.8453 16.3179 68.484 19.9187C68.7916 20.5975 68.7863 20.6028 68.065 20.6028C67.0256 20.6028 66.3044 20.1255 65.8961 19.1657C65.4665 18.1369 64.6976 17.6278 63.5945 17.6278C62.3218 17.6278 61.0544 17.6596 59.7816 17.6119C59.2248 17.5906 58.9702 17.7762 58.7952 18.2853C58.5778 18.9217 58.2596 19.521 58.0157 20.1467C57.8884 20.4649 57.7293 20.6346 57.3475 20.6134C56.7642 20.5763 56.1755 20.6028 55.5073 20.6028H55.5126ZM59.8612 15.8512H64.4642C63.6953 14.0641 62.9529 12.3353 62.168 10.5163C61.3831 12.3406 60.6354 14.0694 59.8665 15.8512H59.8612Z" fill="#163859"/>
<path d="M46.7572 14.2811C46.7572 12.3826 46.7678 10.4841 46.7466 8.58033C46.7466 8.15608 46.8526 8.02881 47.2928 8.02881C49.7004 8.05002 52.108 8.04472 54.5209 8.02881C54.8656 8.02881 55.0141 8.08184 55.0194 8.48487C55.0406 9.86898 55.0565 9.86898 53.6777 9.86898C52.2989 9.86898 50.9201 9.87959 49.536 9.86368C49.1648 9.86368 49.0481 9.96443 49.0587 10.3356C49.0852 11.1629 49.0852 11.9955 49.0587 12.8228C49.0481 13.2152 49.1966 13.2895 49.5519 13.2842C51.0633 13.2683 52.5747 13.2842 54.0861 13.2683C54.4732 13.2683 54.6641 13.3107 54.6588 13.7827C54.6429 15.119 54.6747 15.119 53.3383 15.119C52.0921 15.119 50.8406 15.1402 49.5943 15.1084C49.1489 15.0978 49.0534 15.241 49.0587 15.6546C49.0799 17.1183 49.0534 18.5819 49.0746 20.0403C49.0799 20.4592 48.9739 20.6024 48.5284 20.6077C46.7519 20.6236 46.7519 20.6395 46.7519 18.8524V14.2652L46.7572 14.2811Z" fill="#163859"/>
<path d="M26.0377 13.0353C25.3536 14.4035 24.6642 15.7717 23.9801 17.1452C23.4869 18.1422 22.9884 19.1338 22.5164 20.1414C22.3573 20.4914 22.1505 20.6505 21.7634 20.5922C21.5937 20.5657 21.4134 20.5657 21.2384 20.5922C20.7399 20.6664 20.4695 20.4755 20.2414 20.0035C19.1861 17.8346 18.0725 15.6868 16.98 13.5285C16.9111 13.3959 16.8262 13.2686 16.7414 13.1201C16.5452 13.2951 16.6406 13.502 16.6406 13.677C16.6353 15.7929 16.6247 17.9141 16.6406 20.0301C16.6406 20.4331 16.5717 20.5975 16.1103 20.5975C14.3285 20.6028 14.3285 20.624 14.3285 18.8475C14.3285 15.4641 14.3338 12.0807 14.3179 8.69736C14.3179 8.22008 14.4133 8.08751 14.9383 8.01857C16.0679 7.87538 16.6035 8.31554 17.0861 9.32843C18.38 12.0648 19.8172 14.727 21.2013 17.4209C21.2596 17.5376 21.3286 17.649 21.4187 17.8134C22.1877 16.3232 22.9354 14.8808 23.6725 13.433C24.4892 11.8209 25.3112 10.214 26.1013 8.586C26.2975 8.17766 26.5309 8.02917 26.9922 8.03978C28.4612 8.06629 28.4612 8.04508 28.4612 9.48222C28.4612 12.977 28.4506 16.4717 28.4718 19.9611C28.4718 20.4914 28.3127 20.6081 27.8142 20.6028C26.1597 20.5816 26.1597 20.6028 26.1597 18.927V13.0989C26.1172 13.0777 26.0695 13.0618 26.0271 13.0406L26.0377 13.0353Z" fill="#F5F6F7"/>
<path d="M41.47 20.5868C40.351 20.5868 40.3563 20.5868 39.9268 19.5792C39.651 18.9428 39.5238 18.0678 39.0306 17.7443C38.5427 17.4208 37.6836 17.6329 36.9889 17.6276C35.8487 17.6223 34.7139 17.6541 33.5737 17.6117C33.0752 17.5958 32.8313 17.7655 32.6722 18.2216C32.4388 18.8739 32.1313 19.4996 31.8767 20.1466C31.7494 20.4754 31.5691 20.6239 31.1979 20.5921C30.7631 20.5549 30.3229 20.5708 29.888 20.5921C29.5274 20.6027 29.4108 20.5231 29.5805 20.1466C31.357 16.2541 33.1282 12.3564 34.8836 8.44799C35.0426 8.09799 35.2601 8.08208 35.5783 8.03435C36.5752 7.89117 37.0737 8.25708 37.4927 9.22224C39.0571 12.8549 40.7435 16.4397 42.3927 20.0352C42.573 20.4277 42.6102 20.6557 42.0639 20.5921C41.8677 20.5708 41.6715 20.5921 41.4753 20.5921L41.47 20.5868ZM33.7116 15.8617H38.3359C37.5616 14.064 36.8086 12.3245 36.0184 10.495C35.2283 12.3352 34.4805 14.064 33.7116 15.8617Z" fill="#F5F6F7"/>
<path d="M4.44389 17.7495C5.8386 18.7995 7.37119 19.176 9.04697 19.0593C9.59849 19.0222 10.1341 18.9108 10.5955 18.598C11.5871 17.9298 11.4864 16.6517 10.4046 16.1426C9.59319 15.7555 8.70227 15.607 7.83786 15.3949C7.13786 15.2252 6.46436 14.9813 5.80148 14.7002C3.20827 13.6237 3.54767 10.4312 5.19162 9.15316C6.54921 8.10315 8.10302 7.91755 9.72576 8.09255C10.8182 8.20922 11.8576 8.5327 12.7856 9.16377C13.1303 9.40241 13.2629 9.60923 13.0349 9.99636C12.8387 10.3304 12.775 10.8555 12.4993 11.0092C12.1758 11.1842 11.8576 10.6964 11.5235 10.5267C10.2667 9.8956 8.96212 9.65696 7.58862 10.007C6.92043 10.1767 6.40073 10.5479 6.19921 11.2585C5.99769 11.9691 6.23103 12.5577 6.88861 12.9077C7.64695 13.3161 8.49014 13.4593 9.31212 13.6714C10.0546 13.8623 10.7864 14.0638 11.4864 14.382C12.6584 14.9123 13.491 15.6813 13.5122 17.0813C13.5334 18.5767 12.8758 19.6904 11.5288 20.2578C8.96742 21.345 6.45906 21.0692 4.06207 19.6851C3.781 19.5207 3.65373 19.3457 3.85525 19.0063C4.08328 18.6192 4.24237 18.1949 4.44919 17.7495H4.44389Z" fill="#F5F6F7"/>
<path d="M59.8608 15.8564C60.6298 14.0746 61.3775 12.3457 62.1624 10.5215C62.9472 12.3404 63.6897 14.0692 64.4586 15.8564H59.8608Z" fill="#F5F6F7"/>
<path d="M33.7114 15.8618C34.4857 14.0694 35.2281 12.3353 36.0183 10.4951C36.8084 12.3247 37.5615 14.0641 38.3357 15.8618H33.7114Z" fill="#163859"/>
</g>
</g>
<defs>
<clipPath id="clip0_842_3952">
<rect width="72" height="29.167" fill="white"/>
</clipPath>
</defs>
</svg>
