<svg width="99" height="40" viewBox="0 0 99 40" fill="none" xmlns="http://www.w3.org/2000/svg">
<rect width="98" height="40" rx="7" fill="#163859"/>
<mask id="mask0_341_1353" style="mask-type:luminance" maskUnits="userSpaceOnUse" x="0" y="0" width="96" height="40">
<path d="M0 0H95.4667V40H0V0Z" fill="white"/>
</mask>
<g mask="url(#mask0_341_1353)">
<mask id="mask1_341_1353" style="mask-type:luminance" maskUnits="userSpaceOnUse" x="0" y="0" width="96" height="40">
<path d="M6.13472 0H89.332C90.9597 0 92.5195 0.647222 93.6708 1.79722C94.8208 2.94722 95.4667 4.50694 95.4667 6.13333V33.8667C95.4667 35.4931 94.8208 37.0528 93.6708 38.2028C92.5195 39.3528 90.9597 40 89.332 40H6.13472C4.50833 40 2.94722 39.3528 1.79722 38.2028C0.647222 37.0528 0 35.4931 0 33.8667V6.13333C0 4.50694 0.647222 2.94722 1.79722 1.79722C2.94722 0.647222 4.50833 0 6.13472 0Z" fill="white"/>
</mask>
<g mask="url(#mask1_341_1353)">
<path d="M6.13472 0H89.332C90.9598 0 92.5195 0.647222 93.6709 1.79722C94.8209 2.94722 95.4667 4.50694 95.4667 6.13333V33.8667C95.4667 35.4931 94.8209 37.0528 93.6709 38.2028C92.5195 39.3528 90.9598 40 89.332 40H6.13472C4.50834 40 2.94722 39.3528 1.79722 38.2028C0.647222 37.0528 0 35.4931 0 33.8667V6.13333C0 4.50694 0.647222 2.94722 1.79722 1.79722C2.94722 0.647222 4.50834 0 6.13472 0Z" stroke="white" stroke-width="6"/>
</g>
</g>
<mask id="mask2_341_1353" style="mask-type:luminance" maskUnits="userSpaceOnUse" x="61" y="0" width="38" height="40">
<path d="M61.4692 0H98.5317V40H61.4692V0Z" fill="white"/>
</mask>
<g mask="url(#mask2_341_1353)">
<mask id="mask3_341_1353" style="mask-type:luminance" maskUnits="userSpaceOnUse" x="61" y="0" width="38" height="40">
<path d="M67.6026 0H92.3623C93.9887 0 95.5484 0.645833 96.6984 1.79583C97.8484 2.94722 98.4956 4.50694 98.4956 6.13333V33.8667C98.4956 35.4931 97.8484 37.0528 96.6984 38.2042C95.5484 39.3542 93.9887 40 92.3623 40H67.6026C65.9762 40 64.4165 39.3542 63.2665 38.2042C62.1165 37.0528 61.4692 35.4931 61.4692 33.8667V6.13333C61.4692 4.50694 62.1165 2.94722 63.2665 1.79583C64.4165 0.645833 65.9762 0 67.6026 0Z" fill="white"/>
</mask>
<g mask="url(#mask3_341_1353)">
<path d="M61.4692 0H98.5526V40H61.4692V0Z" fill="white"/>
</g>
</g>
<mask id="mask4_341_1353" style="mask-type:luminance" maskUnits="userSpaceOnUse" x="59" y="0" width="23" height="40">
<path d="M59.6987 0H81.7696V40H59.6987V0Z" fill="white"/>
</mask>
<g mask="url(#mask4_341_1353)">
<path d="M59.6987 0H81.7821V40H59.6987V0Z" fill="white"/>
</g>
<path d="M11.65 28.65C10.3278 28.65 9.09028 28.4736 7.93889 28.1222C6.78611 27.7667 5.80694 27.2583 5 26.5944L6.06667 24.3222C6.90278 24.9528 7.77778 25.4167 8.68889 25.7167C9.6 26.0139 10.5944 26.1611 11.6722 26.1611C12.8639 26.1611 13.7861 25.9528 14.4389 25.5333C15.0944 25.1153 15.4222 24.5264 15.4222 23.7667C15.4222 23.1222 15.1181 22.6278 14.5111 22.2833C13.9069 21.9361 12.9125 21.6083 11.5278 21.3C9.36806 20.8333 7.79583 20.2306 6.81111 19.4889C5.82917 18.7486 5.33889 17.6694 5.33889 16.25C5.33889 15.2319 5.6125 14.3278 6.16111 13.5389C6.70833 12.75 7.48611 12.1306 8.49444 11.6778C9.50139 11.2264 10.6667 11 11.9889 11C13.1958 11 14.3444 11.1819 15.4333 11.5444C16.5222 11.9083 17.4125 12.4111 18.1056 13.0556L17.0667 15.3278C15.5333 14.1028 13.8403 13.4889 11.9889 13.4889C10.8778 13.4889 9.99722 13.7208 9.35 14.1833C8.70556 14.6431 8.38333 15.2667 8.38333 16.0556C8.38333 16.7333 8.66806 17.25 9.23889 17.6056C9.8125 17.9583 10.7944 18.2875 12.1833 18.5944C13.6167 18.9319 14.7833 19.2986 15.6833 19.6944C16.5861 20.0875 17.2806 20.5944 17.7667 21.2167C18.2514 21.8361 18.4944 22.6139 18.4944 23.55C18.4944 24.5806 18.2194 25.4778 17.6722 26.2444C17.1236 27.0111 16.3333 27.6042 15.3 28.0222C14.2694 28.4403 13.0528 28.65 11.65 28.65Z" fill="white"/>
<path d="M36.1111 11H38.9684V28.2167H35.7765V17.5278L30.4867 28.2167H28.1057L22.7837 17.65V28.2167H19.5918V11H22.4491L29.3091 24.4667L36.1111 11Z" fill="white"/>
<path d="M55.2086 28.2167L53.4919 24.1778H45.0752L43.3363 28.2167H40.1919L47.9752 11H50.5141L58.3252 28.2167H55.2086ZM46.1141 21.7611H52.4475L49.2808 14.3889L46.1141 21.7611Z" fill="white"/>
<path d="M64 28.2167V11H75.2444V13.4944H67.0944V18.2056H74.7611V20.7222H67.0944V28.2167H64Z" fill="#163859"/>
<path d="M90.984 28.2167L89.2673 24.1778H80.8506L79.1117 28.2167H75.9673L83.7506 11H86.2895L94.1006 28.2167H90.984ZM81.8895 21.7611H88.2228L85.0562 14.3889L81.8895 21.7611Z" fill="#163859"/>
</svg>
