<svg width="137" height="55" viewBox="0 0 137 55" fill="none" xmlns="http://www.w3.org/2000/svg">
<g clip-path="url(#clip0_714_3823)">
<path d="M68.5869 0.0939544C88.2442 0.0939544 107.904 0.175546 127.561 0.0420327C132.937 0.00494568 136.43 4.58395 136.383 8.82423C136.237 21.3374 136.333 33.8555 136.328 46.3711C136.328 51.3408 132.726 54.9703 127.759 54.9728C88.2367 54.9802 48.714 54.958 9.19128 55.0025C4.75799 55.0049 0.622233 51.2765 0.669343 46.4552C0.790837 34.1893 0.907372 21.9159 0.619753 9.65251C0.490821 4.08204 4.45549 -0.0741732 10.3566 7.46364e-07C29.7634 0.24972 49.1777 0.0939544 68.5869 0.0939544ZM45.3494 50.8586C57.4492 50.8586 69.5465 50.8537 81.6463 50.871C82.4967 50.871 82.9654 50.829 82.9629 49.7213C82.9207 34.9013 82.9257 20.0838 82.9554 5.26388C82.9554 4.33423 82.7001 4.09935 81.7752 4.10182C57.7417 4.12902 33.7083 4.11913 9.67725 4.12407C6.4837 4.12407 4.73319 5.90425 4.73319 9.11598C4.73319 21.3423 4.73319 33.5687 4.73319 45.7925C4.73319 49.2317 6.35972 50.8586 9.79627 50.8586C21.6481 50.8586 33.5 50.8586 45.3494 50.8586ZM105.298 38.8548C106.562 38.8548 107.668 38.8029 108.767 38.8746C109.491 38.9216 109.788 38.6001 110.029 37.9993C110.5 36.82 111.095 35.6851 111.504 34.486C111.831 33.5291 112.312 33.1755 113.361 33.2151C115.754 33.3066 118.152 33.2448 120.547 33.2448C122.626 33.2448 124.073 34.2123 124.888 36.1474C125.649 37.9556 127.011 38.8581 128.974 38.8548C130.343 38.8548 130.35 38.8499 129.768 37.5691C126.676 30.7748 123.497 24.0175 120.537 17.1663C119.79 15.4381 118.843 14.9609 117.132 15.1315C116.356 15.2081 115.922 15.3243 115.573 16.1155C113.555 20.6896 111.447 25.2266 109.379 29.7809C108.028 32.7577 106.696 35.742 105.298 38.8523V38.8548ZM88.7847 26.9276C88.7847 29.8105 88.7847 32.6909 88.7847 35.5738C88.7847 38.9413 88.7847 38.9117 92.132 38.8795C92.9725 38.8721 93.1709 38.6001 93.1585 37.8114C93.1163 35.0546 93.1709 32.2953 93.1238 29.5385C93.1114 28.7523 93.2973 28.4828 94.1329 28.5051C96.4859 28.5644 98.8389 28.5248 101.194 28.5248C103.706 28.5248 103.657 28.5248 103.681 26.0079C103.689 25.1178 103.337 25.0312 102.605 25.0387C99.7563 25.0708 96.9074 25.0337 94.056 25.0659C93.3841 25.0733 93.099 24.9299 93.1262 24.1931C93.1783 22.6305 93.1758 21.0629 93.1262 19.5003C93.1039 18.7982 93.3271 18.5979 94.0263 18.6078C96.6272 18.6449 99.2282 18.6226 101.832 18.6226C104.433 18.6226 104.398 18.6226 104.363 16.0092C104.353 15.2576 104.078 15.1513 103.426 15.1537C98.8836 15.1785 94.3412 15.1884 89.7988 15.1463C88.9731 15.1389 88.7599 15.3812 88.7698 16.1823C88.8095 19.7624 88.7872 23.345 88.7872 26.9276H88.7847Z" fill="#17395A"/>
<path d="M45.3491 50.8584C33.4972 50.8584 21.6454 50.8584 9.79599 50.8584C6.35944 50.8584 4.73291 49.2315 4.73291 45.7923C4.73291 33.5659 4.73291 21.3396 4.73291 9.11572C4.73291 5.90399 6.48094 4.12381 9.67697 4.12381C33.7105 4.11887 57.7439 4.12629 81.775 4.10156C82.6998 4.10156 82.9577 4.33645 82.9552 5.26362C82.9254 20.0836 82.9205 34.9011 82.9626 49.721C82.9651 50.8287 82.4965 50.8732 81.646 50.8707C69.5462 50.8534 57.4489 50.8584 45.3491 50.8584ZM49.7179 24.576C49.7997 24.6131 49.884 24.6478 49.9659 24.6848V35.6774C49.9659 38.8323 49.9659 38.7952 53.0875 38.8372C54.0322 38.8496 54.3396 38.637 54.3322 37.6307C54.2826 31.044 54.3074 24.4549 54.3074 17.8683C54.3074 15.1658 54.3074 15.2054 51.5378 15.151C50.6725 15.1337 50.2336 15.4106 49.8592 16.1796C48.3716 19.2454 46.8219 22.2816 45.2772 25.3203C43.8887 28.0523 42.4754 30.7721 41.0274 33.5832C40.8488 33.2643 40.7224 33.0566 40.6133 32.839C38.0074 27.7631 35.2924 22.739 32.8575 17.5814C31.955 15.6702 30.9459 14.842 28.811 15.1139C27.8168 15.2425 27.6358 15.4947 27.6407 16.3922C27.6754 22.7736 27.6581 29.1551 27.6581 35.5365C27.6581 38.8842 27.6581 38.8496 31.0153 38.8348C31.8831 38.8298 32.0195 38.5208 32.0145 37.7642C31.9823 33.7712 31.9947 29.7781 32.0095 25.7826C32.0095 25.4538 31.831 25.0681 32.198 24.7368C32.3592 25.0137 32.5154 25.251 32.6443 25.5032C34.7047 29.5655 36.7949 33.6154 38.7909 37.7098C39.2273 38.6048 39.7306 38.9609 40.6753 38.8199C40.9976 38.7729 41.3398 38.7729 41.6646 38.8199C42.3886 38.9262 42.7804 38.6221 43.0853 37.9669C43.9705 36.0681 44.9127 34.1964 45.845 32.3198C47.1293 29.7336 48.4286 27.1548 49.7204 24.5736L49.7179 24.576ZM78.812 38.815C79.1839 38.815 79.5583 38.7804 79.9253 38.8224C80.9567 38.9361 80.8823 38.5084 80.5427 37.7691C77.4284 30.9872 74.2498 24.2349 71.3017 17.3812C70.5182 15.5614 69.5809 14.8741 67.6965 15.1461C67.0891 15.2326 66.6775 15.2672 66.3824 15.9274C63.0748 23.2928 59.735 30.641 56.3802 37.9867C56.0554 38.6963 56.2786 38.8471 56.958 38.8249C57.7836 38.7977 58.6142 38.7655 59.4325 38.8348C60.1342 38.8941 60.4763 38.6073 60.7168 37.9917C61.1954 36.7727 61.778 35.5909 62.2194 34.3596C62.5268 33.5017 62.9781 33.1778 63.9228 33.2124C66.065 33.2915 68.2147 33.2272 70.3595 33.242C71.6711 33.2519 73.2877 32.844 74.2101 33.4571C75.1349 34.0728 75.3754 35.717 75.8961 36.9211C76.7119 38.8175 76.7044 38.8199 78.8095 38.8199L78.812 38.815ZM8.9976 33.472C8.60832 34.3077 8.30334 35.1112 7.8744 35.8406C7.49504 36.481 7.73307 36.8148 8.26615 37.1238C12.7862 39.7372 17.5146 40.2614 22.3471 38.2068C24.8786 37.1312 26.1258 35.0296 26.0836 32.2135C26.0439 29.5754 24.4744 28.1166 22.2652 27.1202C20.9486 26.5268 19.5651 26.1411 18.1692 25.7851C16.6195 25.387 15.0252 25.1225 13.5945 24.3486C12.3622 23.6835 11.9135 22.5758 12.2978 21.2358C12.6796 19.9006 13.659 19.1935 14.9161 18.8745C17.5096 18.2169 19.9717 18.6669 22.3396 19.8586C22.9744 20.1775 23.5694 21.0973 24.1794 20.766C24.705 20.4792 24.8166 19.4877 25.191 18.8548C25.6274 18.118 25.3794 17.7323 24.7249 17.2848C22.9744 16.0881 21.0181 15.4823 18.9576 15.2647C15.893 14.9384 12.9598 15.287 10.4035 17.2674C7.29916 19.6732 6.6669 25.6911 11.5539 27.7235C12.811 28.2452 14.078 28.7075 15.3971 29.0314C17.0311 29.432 18.7022 29.7114 20.2395 30.4407C22.2727 31.4075 22.4661 33.8157 20.5966 35.0741C19.7238 35.6626 18.7196 35.8752 17.6757 35.9444C14.5194 36.1546 11.6234 35.445 8.9976 33.472Z" fill="#FAFBFB"/>
<path d="M105.298 38.8519C106.696 35.7415 108.028 32.7573 109.379 29.7804C111.444 25.2261 113.552 20.6892 115.573 16.1151C115.922 15.3214 116.356 15.2077 117.132 15.1311C118.841 14.9605 119.79 15.4377 120.537 17.1659C123.497 24.0171 126.673 30.7744 129.768 37.5687C130.35 38.8494 130.343 38.8544 128.974 38.8544C127.011 38.8577 125.649 37.9552 124.888 36.147C124.075 34.2119 122.628 33.2444 120.547 33.2444C118.151 33.2444 115.754 33.3062 113.361 33.2147C112.312 33.1751 111.831 33.5287 111.504 34.4855C111.095 35.6847 110.497 36.8171 110.029 37.9989C109.788 38.5997 109.491 38.9211 108.767 38.8742C107.668 38.8025 106.562 38.8544 105.298 38.8544V38.8519ZM113.5 29.8966H122.176C120.725 26.5291 119.322 23.268 117.841 19.8362C116.359 23.2729 114.948 26.539 113.5 29.8966Z" fill="#F9F9FA"/>
<path d="M88.7848 26.925C88.7848 23.3424 88.8071 19.7623 88.7674 16.1797C88.7575 15.3786 88.9707 15.1363 89.7964 15.1437C94.3388 15.1833 98.8812 15.1734 103.424 15.1511C104.078 15.1487 104.351 15.255 104.361 16.0066C104.396 18.62 104.43 18.62 101.829 18.62C99.2283 18.62 96.6249 18.6423 94.0239 18.6052C93.3272 18.5953 93.104 18.7956 93.1238 19.4977C93.1734 21.0603 93.1759 22.6279 93.1238 24.1905C93.099 24.9273 93.3842 25.0707 94.0536 25.0633C96.9026 25.0311 99.7515 25.0682 102.603 25.0361C103.334 25.0286 103.689 25.1152 103.679 26.0053C103.654 28.5222 103.704 28.5222 101.192 28.5222C98.839 28.5222 96.4835 28.5618 94.1305 28.5025C93.2949 28.4827 93.109 28.7522 93.1214 29.5359C93.166 32.2927 93.1114 35.052 93.1561 37.8088C93.1685 38.5975 92.9701 38.8695 92.1296 38.8769C88.7823 38.9066 88.7823 38.9387 88.7823 35.5712C88.7823 32.6883 88.7823 29.8079 88.7823 26.925H88.7848Z" fill="#F5F6F7"/>
<path d="M49.7155 24.5762C48.4237 27.1575 47.1245 29.7363 45.8401 32.3225C44.9078 34.1991 43.9656 36.0707 43.0804 37.9696C42.7755 38.6248 42.3862 38.9289 41.6597 38.8226C41.3374 38.7756 40.9952 38.7731 40.6704 38.8226C39.7257 38.9635 39.2224 38.6075 38.786 37.7125C36.7925 33.6181 34.6998 29.5706 32.6394 25.5059C32.5105 25.2537 32.3543 25.0163 32.1931 24.7394C31.8261 25.0707 32.0071 25.4564 32.0047 25.7853C31.9898 29.7783 31.9774 33.7738 32.0096 37.7668C32.0146 38.5259 31.8782 38.835 31.0104 38.8374C27.6532 38.8523 27.6532 38.8869 27.6532 35.5392C27.6532 29.1577 27.6681 22.7763 27.6358 16.3949C27.6309 15.4973 27.8119 15.2427 28.8061 15.1166C30.941 14.8421 31.9501 15.6729 32.8526 17.5841C35.29 22.7392 38.0025 27.7657 40.6084 32.8417C40.72 33.0593 40.8464 33.267 41.0225 33.5859C42.4705 30.7747 43.8838 28.055 45.2723 25.3229C46.817 22.2843 48.3667 19.2481 49.8544 16.1822C50.2288 15.4108 50.6676 15.1364 51.533 15.1537C54.3025 15.2081 54.3025 15.1685 54.3025 17.8709C54.3025 24.4576 54.2777 31.0467 54.3273 37.6333C54.3348 38.6372 54.0273 38.8523 53.0826 38.8399C49.961 38.7979 49.961 38.8325 49.961 35.6801V24.6875C49.8791 24.6504 49.7948 24.6158 49.713 24.5787L49.7155 24.5762Z" fill="#193A5B"/>
<path d="M78.812 38.8181C76.7069 38.8181 76.7144 38.8156 75.8986 36.9193C75.3804 35.7152 75.1374 34.071 74.2126 33.4553C73.2927 32.8422 71.6761 33.2501 70.362 33.2402C68.2148 33.2254 66.0675 33.2897 63.9253 33.2106C62.9806 33.176 62.5293 33.4998 62.2219 34.3578C61.7805 35.5891 61.1979 36.7684 60.7193 37.9898C60.4763 38.608 60.1366 38.8923 59.435 38.833C58.6143 38.7637 57.7836 38.7959 56.9604 38.8231C56.2836 38.8453 56.0579 38.6945 56.3827 37.9849C59.735 30.6417 63.0773 23.291 66.3849 15.9256C66.68 15.2679 67.0916 15.2333 67.699 15.1443C69.5834 14.8723 70.5207 15.5596 71.3042 17.3794C74.2523 24.2306 77.4309 30.9853 80.5451 37.7673C80.8848 38.5066 80.9592 38.9343 79.9278 38.8206C79.5608 38.781 79.1864 38.8132 78.8145 38.8132L78.812 38.8181ZM64.1831 29.9074H72.9034C71.4405 26.5176 70.0272 23.2416 68.5346 19.7875C67.042 23.2589 65.6386 26.5225 64.1831 29.9074Z" fill="#1A3B5B"/>
<path d="M8.99756 33.4722C11.6233 35.4477 14.5193 36.1573 17.6757 35.9446C18.7196 35.8754 19.7237 35.6628 20.5965 35.0743C22.466 33.8158 22.2726 31.4077 20.2395 30.4409C18.7047 29.7116 17.0335 29.4297 15.3971 29.0316C14.078 28.7077 12.811 28.2479 11.5539 27.7237C6.66686 25.6913 7.29912 19.6758 10.4034 17.2676C12.9597 15.2847 15.893 14.9386 18.9576 15.2649C21.018 15.4825 22.9743 16.0907 24.7248 17.2849C25.3794 17.7325 25.6249 18.1206 25.191 18.855C24.8166 19.4879 24.705 20.4794 24.1793 20.7662C23.5694 21.0975 22.9718 20.1777 22.3396 19.8588C19.9717 18.667 17.5096 18.2171 14.916 18.8747C13.659 19.1937 12.6796 19.8983 12.2977 21.2359C11.9159 22.576 12.3622 23.6837 13.5945 24.3488C15.0251 25.1227 16.6194 25.3872 18.1691 25.7853C19.5651 26.1438 20.9486 26.5295 22.2652 27.1204C24.4744 28.1168 26.0439 29.5731 26.0836 32.2137C26.1282 35.0298 24.881 37.1314 22.347 38.2069C17.5145 40.2616 12.7862 39.7374 8.26612 37.124C7.73303 36.8149 7.49748 36.4812 7.87436 35.8408C8.30579 35.1114 8.60828 34.3079 8.99756 33.4722Z" fill="#1B3C5C"/>
<path d="M113.498 29.8993C114.948 26.5417 116.356 23.2756 117.839 19.8389C119.317 23.2706 120.723 26.5318 122.173 29.8993H113.498Z" fill="#1E3E5E"/>
<path d="M64.1831 29.905C65.6386 26.5202 67.0419 23.254 68.5346 19.7852C70.0247 23.2392 71.4405 26.5152 72.9034 29.905H64.1831Z" fill="#F5F6F7"/>
</g>
<defs>
<clipPath id="clip0_714_3823">
<rect width="135.766" height="55" fill="white" transform="translate(0.617188)"/>
</clipPath>
</defs>
</svg>
